<svg width="416" height="198" viewBox="0 0 416 198" fill="none" xmlns="http://www.w3.org/2000/svg">
<path d="M25 45C48.7482 45 68 64.2518 68 88L68 155C68 178.748 48.7482 198 25 198L9.41552e-07 198L7.62939e-06 45L25 45Z" fill="black"/>
<circle cx="88" cy="121" r="10" transform="rotate(90 88 121)" fill="#ED0000"/>
<path d="M105.268 25.3874C105.268 11.9186 116.187 1 129.656 1V36.2976H105.268V25.3874Z" fill="black" stroke="black"/>
<rect x="105.268" y="36.2976" width="24.3874" height="28.4048" fill="black" stroke="black"/>
<path fill-rule="evenodd" clip-rule="evenodd" d="M105.711 80.262C105.421 78.7569 105.268 77.2025 105.268 75.6126V64.7024H129.656V100C123.75 100 118.335 97.9009 114.115 94.408C109.906 97.2125 103.155 99.8783 95 98.3955C97.2462 97.4329 105.91 91.6569 105.589 80.105C105.628 80.1585 105.669 80.2108 105.711 80.262Z" fill="black"/>
<path d="M105.711 80.262L105.326 80.5804L106.202 80.1672L105.711 80.262ZM105.268 64.7024V64.2024H104.768V64.7024H105.268ZM129.656 64.7024H130.156V64.2024H129.656V64.7024ZM129.656 100V100.5H130.156V100H129.656ZM114.115 94.408L114.434 94.0229L114.148 93.7857L113.838 93.9919L114.115 94.408ZM95 98.3955L94.803 97.936L93.2762 98.5903L94.9106 98.8875L95 98.3955ZM105.589 80.105L105.994 79.8109L105.045 78.5061L105.089 80.1189L105.589 80.105ZM104.768 75.6126C104.768 77.2344 104.924 78.8206 105.22 80.3567L106.202 80.1672C105.917 78.6932 105.768 77.1705 105.768 75.6126H104.768ZM104.768 64.7024V75.6126H105.768V64.7024H104.768ZM129.656 64.2024H105.268V65.2024H129.656V64.2024ZM130.156 100V64.7024H129.156V100H130.156ZM113.796 94.7932C118.102 98.3575 123.63 100.5 129.656 100.5V99.5C123.871 99.5 118.567 97.4442 114.434 94.0229L113.796 94.7932ZM94.9106 98.8875C103.225 100.399 110.105 97.6802 114.392 94.8242L113.838 93.9919C109.706 96.7448 103.086 99.3574 95.0894 97.9036L94.9106 98.8875ZM105.089 80.1189C105.246 85.7568 103.213 89.9763 100.867 92.9089C98.5109 95.8538 95.8496 97.4875 94.803 97.936L95.197 98.8551C96.3967 98.341 99.1903 96.6053 101.648 93.5336C104.115 90.4496 106.253 86.0051 106.089 80.0911L105.089 80.1189ZM106.097 79.9435C106.061 79.9002 106.026 79.856 105.994 79.8109L105.185 80.3991C105.23 80.4611 105.277 80.5215 105.326 80.5804L106.097 79.9435Z" fill="black"/>
<rect x="129.656" y="1" width="261" height="99" fill="black"/>
<path d="M136.298 35.18C139.43 35.18 141.77 33.434 141.77 30.698V30.482H140.384V30.698C140.384 32.75 138.962 33.938 136.316 33.938C133.31 33.938 131.636 32.246 131.636 28.97C131.636 25.694 133.31 24.002 136.316 24.002C138.962 24.002 140.384 25.19 140.384 27.242V27.458H141.77V27.242C141.77 24.506 139.412 22.76 136.298 22.76C132.77 22.76 130.286 25.208 130.286 28.97C130.286 32.732 132.77 35.18 136.298 35.18ZM144.668 35V30.176C144.668 28.178 145.46 27.044 147.26 27.044C148.808 27.044 149.438 27.782 149.438 29.294V29.978H150.716V29.096C150.716 27.44 149.816 25.928 147.764 25.928C145.91 25.928 144.902 27.116 144.632 28.538H144.542V26.108H143.39V35H144.668ZM156.337 35.18C158.821 35.18 160.657 33.902 160.657 32.048V31.922H159.379V32.048C159.379 33.344 158.407 34.118 156.319 34.118C153.961 34.118 152.935 32.912 152.863 30.914H160.693C160.747 30.68 160.783 30.41 160.783 30.086C160.783 27.44 158.929 25.928 156.319 25.928C153.457 25.928 151.657 27.854 151.657 30.554C151.657 33.38 153.475 35.18 156.337 35.18ZM156.301 26.99C158.389 26.99 159.577 27.98 159.577 29.852C159.577 29.942 159.577 30.032 159.577 30.122H152.863C152.953 28.178 153.997 26.99 156.301 26.99ZM164.854 35.18C166.924 35.18 168.49 34.244 169.012 32.606H169.102V35H170.254V29.438C170.254 27.476 169.102 25.928 166.402 25.928C163.666 25.928 162.118 27.458 162.118 29.33V29.402H163.396V29.33C163.396 27.764 164.404 27.08 166.312 27.08C168.256 27.08 169.012 27.764 169.012 29.492V30.176L164.782 30.644C163.126 30.824 161.92 31.454 161.92 32.912C161.92 34.352 163.108 35.18 164.854 35.18ZM163.198 32.822C163.198 31.904 163.846 31.58 165.178 31.454L169.012 31.022V31.094C169.012 33.236 167.302 34.19 165.142 34.19C163.792 34.19 163.198 33.722 163.198 32.822ZM177.718 35V33.83H176.098C174.802 33.83 174.19 33.488 174.19 32.246V27.206H177.718V26.108H174.19V23.984H172.894V26.108H171.31V27.206H172.894V32.174C172.894 34.262 174.028 35 175.792 35H177.718ZM183.26 35.18C185.744 35.18 187.58 33.902 187.58 32.048V31.922H186.302V32.048C186.302 33.344 185.33 34.118 183.242 34.118C180.884 34.118 179.858 32.912 179.786 30.914H187.616C187.67 30.68 187.706 30.41 187.706 30.086C187.706 27.44 185.852 25.928 183.242 25.928C180.38 25.928 178.58 27.854 178.58 30.554C178.58 33.38 180.398 35.18 183.26 35.18ZM183.224 26.99C185.312 26.99 186.5 27.98 186.5 29.852C186.5 29.942 186.5 30.032 186.5 30.122H179.786C179.876 28.178 180.92 26.99 183.224 26.99ZM194.992 35.18C197.062 35.18 198.628 34.244 199.15 32.606H199.24V35H200.392V29.438C200.392 27.476 199.24 25.928 196.54 25.928C193.804 25.928 192.256 27.458 192.256 29.33V29.402H193.534V29.33C193.534 27.764 194.542 27.08 196.45 27.08C198.394 27.08 199.15 27.764 199.15 29.492V30.176L194.92 30.644C193.264 30.824 192.058 31.454 192.058 32.912C192.058 34.352 193.246 35.18 194.992 35.18ZM193.336 32.822C193.336 31.904 193.984 31.58 195.316 31.454L199.15 31.022V31.094C199.15 33.236 197.44 34.19 195.28 34.19C193.93 34.19 193.336 33.722 193.336 32.822ZM209.523 35.18C211.827 35.18 213.483 34.298 213.483 32.624C213.483 31.184 212.457 30.536 210.549 30.266L208.371 29.96C206.895 29.744 206.427 29.42 206.427 28.502C206.427 27.44 207.201 26.99 209.073 26.99C211.341 26.99 212.043 27.71 212.043 29.042V29.132H213.321V29.096C213.321 27.008 211.665 25.928 209.109 25.928C206.661 25.928 205.167 26.918 205.167 28.484C205.167 29.96 206.193 30.59 207.813 30.806L210.189 31.148C211.665 31.382 212.223 31.688 212.223 32.624C212.223 33.65 211.539 34.118 209.541 34.118C207.363 34.118 206.481 33.596 206.481 32.102V31.994H205.203V32.03C205.203 34.082 206.787 35.18 209.523 35.18ZM220.526 35V33.83H218.906C217.61 33.83 216.998 33.488 216.998 32.246V27.206H220.526V26.108H216.998V23.984H215.702V26.108H214.118V27.206H215.702V32.174C215.702 34.262 216.836 35 218.6 35H220.526ZM225.564 35.18C227.778 35.18 229.056 33.74 229.362 32.228H229.452V35H230.604V26.108H229.326V30.428C229.326 32.714 228.192 34.028 226.014 34.028C223.962 34.028 223.062 32.966 223.062 31.112V26.108H221.784V31.31C221.784 33.416 223.026 35.18 225.564 35.18ZM233.942 35V30.698C233.942 28.412 235.076 27.098 237.236 27.098C239.27 27.098 240.152 28.16 240.152 29.996V35H241.43V29.816C241.43 27.71 240.188 25.928 237.686 25.928C235.472 25.928 234.212 27.386 233.906 28.898H233.816V26.108H232.664V35H233.942ZM244.697 35V30.698C244.697 28.412 245.831 27.098 247.991 27.098C250.025 27.098 250.907 28.16 250.907 29.996V35H252.185V29.816C252.185 27.71 250.943 25.928 248.441 25.928C246.227 25.928 244.967 27.386 244.661 28.898H244.571V26.108H243.419V35H244.697ZM255.453 24.974V22.94H254.175V24.974H255.453ZM255.453 35V26.108H254.175V35H255.453ZM258.791 35V30.698C258.791 28.412 259.925 27.098 262.085 27.098C264.119 27.098 265.001 28.16 265.001 29.996V35H266.279V29.816C266.279 27.71 265.037 25.928 262.535 25.928C260.321 25.928 259.061 27.386 258.755 28.898H258.665V26.108H257.513V35H258.791ZM272.084 34.28C274.136 34.28 275.45 33.272 275.81 31.904H275.9V34.226C275.9 36.44 275 37.142 272.696 37.142C270.716 37.142 269.672 36.53 269.672 34.964H268.394C268.394 37.034 270.23 38.24 272.642 38.24C275.324 38.24 277.178 37.088 277.178 34.154V26.108H276.026V28.394H275.936C275.576 26.81 274.1 25.928 272.228 25.928C269.492 25.928 267.818 27.674 267.818 30.104C267.818 32.534 269.438 34.28 272.084 34.28ZM269.096 30.104C269.096 27.836 270.518 27.062 272.516 27.062C274.568 27.062 275.9 28.106 275.9 29.852V30.158C275.9 32.048 274.622 33.146 272.426 33.146C270.5 33.146 269.096 32.372 269.096 30.104ZM283.745 24.974V22.94H282.467V24.974H283.745ZM283.745 35V26.108H282.467V35H283.745ZM287.083 35V30.698C287.083 28.34 287.929 27.098 290.089 27.098C291.961 27.098 292.789 28.016 292.789 29.996V35H294.067V30.698C294.067 28.34 294.931 27.098 297.073 27.098C298.945 27.098 299.791 28.016 299.791 29.996V35H301.069V29.816C301.069 27.566 299.863 25.928 297.541 25.928C295.309 25.928 294.247 27.35 293.995 28.88H293.905C293.617 27.152 292.501 25.928 290.521 25.928C288.307 25.928 287.281 27.296 287.029 28.79H286.957V26.108H285.805V35H287.083ZM305.531 35.18C307.601 35.18 309.167 34.244 309.689 32.606H309.779V35H310.931V29.438C310.931 27.476 309.779 25.928 307.079 25.928C304.343 25.928 302.795 27.458 302.795 29.33V29.402H304.073V29.33C304.073 27.764 305.081 27.08 306.989 27.08C308.933 27.08 309.689 27.764 309.689 29.492V30.176L305.459 30.644C303.803 30.824 302.597 31.454 302.597 32.912C302.597 34.352 303.785 35.18 305.531 35.18ZM303.875 32.822C303.875 31.904 304.523 31.58 305.855 31.454L309.689 31.022V31.094C309.689 33.236 307.979 34.19 305.819 34.19C304.469 34.19 303.875 33.722 303.875 32.822ZM316.757 34.28C318.809 34.28 320.123 33.272 320.483 31.904H320.573V34.226C320.573 36.44 319.673 37.142 317.369 37.142C315.389 37.142 314.345 36.53 314.345 34.964H313.067C313.067 37.034 314.903 38.24 317.315 38.24C319.997 38.24 321.851 37.088 321.851 34.154V26.108H320.699V28.394H320.609C320.249 26.81 318.773 25.928 316.901 25.928C314.165 25.928 312.491 27.674 312.491 30.104C312.491 32.534 314.111 34.28 316.757 34.28ZM313.769 30.104C313.769 27.836 315.191 27.062 317.189 27.062C319.241 27.062 320.573 28.106 320.573 29.852V30.158C320.573 32.048 319.295 33.146 317.099 33.146C315.173 33.146 313.769 32.372 313.769 30.104ZM328.156 35.18C330.64 35.18 332.476 33.902 332.476 32.048V31.922H331.198V32.048C331.198 33.344 330.226 34.118 328.138 34.118C325.78 34.118 324.754 32.912 324.682 30.914H332.512C332.566 30.68 332.602 30.41 332.602 30.086C332.602 27.44 330.748 25.928 328.138 25.928C325.276 25.928 323.476 27.854 323.476 30.554C323.476 33.38 325.294 35.18 328.156 35.18ZM328.12 26.99C330.208 26.99 331.396 27.98 331.396 29.852C331.396 29.942 331.396 30.032 331.396 30.122H324.682C324.772 28.178 325.816 26.99 328.12 26.99ZM338.113 35.18C340.417 35.18 342.073 34.298 342.073 32.624C342.073 31.184 341.047 30.536 339.139 30.266L336.961 29.96C335.485 29.744 335.017 29.42 335.017 28.502C335.017 27.44 335.791 26.99 337.663 26.99C339.931 26.99 340.633 27.71 340.633 29.042V29.132H341.911V29.096C341.911 27.008 340.255 25.928 337.699 25.928C335.251 25.928 333.757 26.918 333.757 28.484C333.757 29.96 334.783 30.59 336.403 30.806L338.779 31.148C340.255 31.382 340.813 31.688 340.813 32.624C340.813 33.65 340.129 34.118 338.131 34.118C335.953 34.118 335.071 33.596 335.071 32.102V31.994H333.793V32.03C333.793 34.082 335.377 35.18 338.113 35.18ZM350.404 35L352.744 29.186L353.446 27.206H353.536L354.238 29.186L356.542 35H358.144L361.024 26.108H359.71L357.802 31.994L357.37 33.866H357.262L356.65 31.886L354.328 26.108H352.69L350.35 31.886L349.738 33.884H349.63L349.18 31.994L347.29 26.108H345.976L348.82 35H350.404ZM363.463 24.974V22.94H362.185V24.974H363.463ZM363.463 35V26.108H362.185V35H363.463ZM370.977 35V33.83H369.357C368.061 33.83 367.449 33.488 367.449 32.246V27.206H370.977V26.108H367.449V23.984H366.153V26.108H364.569V27.206H366.153V32.174C366.153 34.262 367.287 35 369.051 35H370.977ZM373.566 35V30.824C373.566 28.61 374.484 27.098 376.86 27.098C378.858 27.098 379.812 27.962 379.812 29.996V35H381.09V29.834C381.09 27.584 379.848 25.928 377.364 25.928C375.096 25.928 373.944 27.332 373.656 28.826H373.566V22.94H372.288V35H373.566ZM132.014 55V50.824C132.014 48.61 132.932 47.098 135.308 47.098C137.306 47.098 138.26 47.962 138.26 49.996V55H139.538V49.834C139.538 47.584 138.296 45.928 135.812 45.928C133.544 45.928 132.392 47.332 132.104 48.826H132.014V42.94H130.736V55H132.014ZM145.792 55.18C148.276 55.18 150.112 53.902 150.112 52.048V51.922H148.834V52.048C148.834 53.344 147.862 54.118 145.774 54.118C143.416 54.118 142.39 52.912 142.318 50.914H150.148C150.202 50.68 150.238 50.41 150.238 50.086C150.238 47.44 148.384 45.928 145.774 45.928C142.912 45.928 141.112 47.854 141.112 50.554C141.112 53.38 142.93 55.18 145.792 55.18ZM145.756 46.99C147.844 46.99 149.032 47.98 149.032 49.852C149.032 49.942 149.032 50.032 149.032 50.122H142.318C142.408 48.178 143.452 46.99 145.756 46.99ZM153.121 55V42.94H151.843V55H153.121ZM156.459 58.06V52.39H156.477C156.891 54.1 158.313 55.18 160.275 55.18C163.101 55.18 164.667 53.254 164.667 50.554C164.667 47.854 163.083 45.928 160.311 45.928C158.205 45.928 156.873 47.008 156.477 48.61H156.333V46.108H155.181V58.06H156.459ZM156.459 50.716V50.554C156.459 48.358 157.755 47.116 159.969 47.116C161.985 47.116 163.371 47.98 163.371 50.554C163.371 53.128 162.003 54.01 159.933 54.01C157.845 54.01 156.459 52.822 156.459 50.716ZM173.718 55.18C176.634 55.18 178.56 53.254 178.56 50.554C178.56 47.854 176.634 45.928 173.718 45.928C170.82 45.928 168.894 47.854 168.894 50.554C168.894 53.254 170.82 55.18 173.718 55.18ZM173.718 54.028C171.27 54.028 170.154 52.714 170.154 50.554C170.154 48.412 171.27 47.08 173.718 47.08C176.166 47.08 177.3 48.412 177.3 50.554C177.3 52.714 176.166 54.028 173.718 54.028ZM182.078 55V47.206H185.66V46.108H182.078C182.006 44.488 182.888 43.948 184.508 43.948H185.66V42.94H184.688C182.384 42.94 180.962 44.002 180.818 46.108H179.378V47.206H180.8V55H182.078ZM194.779 55.18C197.893 55.18 199.819 53.902 199.819 51.652C199.819 50.05 198.847 49.006 197.137 48.682V48.556C198.649 48.286 199.441 47.278 199.441 45.928C199.441 43.93 197.731 42.76 194.779 42.76C191.197 42.76 189.595 44.542 189.595 46.774V46.99H190.927V46.828C190.927 44.938 191.935 43.984 194.689 43.984C197.281 43.984 198.163 44.686 198.163 46.126C198.163 47.494 197.173 48.16 195.355 48.16H192.367V49.258H195.625C197.461 49.258 198.523 49.978 198.523 51.508C198.523 53.218 197.443 53.956 194.743 53.956C191.845 53.956 190.927 53.002 190.927 51.112V50.878H189.595V51.166C189.595 53.434 191.143 55.18 194.779 55.18ZM206.655 55C210.273 55 212.577 52.66 212.577 48.97C212.577 45.28 210.273 42.94 206.655 42.94H201.417V55H206.655ZM206.655 44.11C209.715 44.11 211.227 45.694 211.227 48.97C211.227 52.246 209.715 53.83 206.655 53.83H202.713V44.11H206.655ZM218.686 55V50.176C218.686 48.178 219.478 47.044 221.278 47.044C222.826 47.044 223.456 47.782 223.456 49.294V49.978H224.734V49.096C224.734 47.44 223.834 45.928 221.782 45.928C219.928 45.928 218.92 47.116 218.65 48.538H218.56V46.108H217.408V55H218.686ZM230.355 55.18C232.839 55.18 234.675 53.902 234.675 52.048V51.922H233.397V52.048C233.397 53.344 232.425 54.118 230.337 54.118C227.979 54.118 226.953 52.912 226.881 50.914H234.711C234.765 50.68 234.801 50.41 234.801 50.086C234.801 47.44 232.947 45.928 230.337 45.928C227.475 45.928 225.675 47.854 225.675 50.554C225.675 53.38 227.493 55.18 230.355 55.18ZM230.319 46.99C232.407 46.99 233.595 47.98 233.595 49.852C233.595 49.942 233.595 50.032 233.595 50.122H226.881C226.971 48.178 228.015 46.99 230.319 46.99ZM237.684 55V50.698C237.684 48.412 238.818 47.098 240.978 47.098C243.012 47.098 243.894 48.16 243.894 49.996V55H245.172V49.816C245.172 47.71 243.93 45.928 241.428 45.928C239.214 45.928 237.954 47.386 237.648 48.898H237.558V46.108H236.406V55H237.684ZM250.995 55.18C252.957 55.18 254.397 54.154 254.829 52.372H254.901V55H256.071V42.94H254.793V48.592H254.703C254.307 47.062 252.993 45.928 250.887 45.928C248.151 45.928 246.567 47.854 246.567 50.554C246.567 53.254 248.151 55.18 250.995 55.18ZM247.863 50.554C247.863 47.98 249.249 47.116 251.283 47.116C253.479 47.116 254.793 48.34 254.793 50.536V50.698C254.793 52.804 253.407 54.01 251.319 54.01C249.231 54.01 247.863 53.128 247.863 50.554ZM262.358 55.18C264.842 55.18 266.678 53.902 266.678 52.048V51.922H265.4V52.048C265.4 53.344 264.428 54.118 262.34 54.118C259.982 54.118 258.956 52.912 258.884 50.914H266.714C266.768 50.68 266.804 50.41 266.804 50.086C266.804 47.44 264.95 45.928 262.34 45.928C259.478 45.928 257.678 47.854 257.678 50.554C257.678 53.38 259.496 55.18 262.358 55.18ZM262.322 46.99C264.41 46.99 265.598 47.98 265.598 49.852C265.598 49.942 265.598 50.032 265.598 50.122H258.884C258.974 48.178 260.018 46.99 262.322 46.99ZM269.687 55V50.176C269.687 48.178 270.479 47.044 272.279 47.044C273.827 47.044 274.457 47.782 274.457 49.294V49.978H275.735V49.096C275.735 47.44 274.835 45.928 272.783 45.928C270.929 45.928 269.921 47.116 269.651 48.538H269.561V46.108H268.409V55H269.687ZM278.404 44.974V42.94H277.126V44.974H278.404ZM278.404 55V46.108H277.126V55H278.404ZM281.741 55V50.698C281.741 48.412 282.875 47.098 285.035 47.098C287.069 47.098 287.951 48.16 287.951 49.996V55H289.229V49.816C289.229 47.71 287.987 45.928 285.485 45.928C283.271 45.928 282.011 47.386 281.705 48.898H281.615V46.108H280.463V55H281.741ZM295.035 54.28C297.087 54.28 298.401 53.272 298.761 51.904H298.851V54.226C298.851 56.44 297.951 57.142 295.647 57.142C293.667 57.142 292.623 56.53 292.623 54.964H291.345C291.345 57.034 293.181 58.24 295.593 58.24C298.275 58.24 300.129 57.088 300.129 54.154V46.108H298.977V48.394H298.887C298.527 46.81 297.051 45.928 295.179 45.928C292.443 45.928 290.769 47.674 290.769 50.104C290.769 52.534 292.389 54.28 295.035 54.28ZM292.047 50.104C292.047 47.836 293.469 47.062 295.467 47.062C297.519 47.062 298.851 48.106 298.851 49.852V50.158C298.851 52.048 297.573 53.146 295.377 53.146C293.451 53.146 292.047 52.372 292.047 50.104ZM306.109 55.18C308.413 55.18 310.069 54.298 310.069 52.624C310.069 51.184 309.043 50.536 307.135 50.266L304.957 49.96C303.481 49.744 303.013 49.42 303.013 48.502C303.013 47.44 303.787 46.99 305.659 46.99C307.927 46.99 308.629 47.71 308.629 49.042V49.132H309.907V49.096C309.907 47.008 308.251 45.928 305.695 45.928C303.247 45.928 301.753 46.918 301.753 48.484C301.753 49.96 302.779 50.59 304.399 50.806L306.775 51.148C308.251 51.382 308.809 51.688 308.809 52.624C308.809 53.65 308.125 54.118 306.127 54.118C303.949 54.118 303.067 53.596 303.067 52.102V51.994H301.789V52.03C301.789 54.082 303.373 55.18 306.109 55.18ZM321.641 50.302V49.168H314.333V50.302H321.641ZM330.216 55.18C332.178 55.18 333.618 54.154 334.05 52.372H334.122V55H335.292V42.94H334.014V48.592H333.924C333.528 47.062 332.214 45.928 330.108 45.928C327.372 45.928 325.788 47.854 325.788 50.554C325.788 53.254 327.372 55.18 330.216 55.18ZM327.084 50.554C327.084 47.98 328.47 47.116 330.504 47.116C332.7 47.116 334.014 48.34 334.014 50.536V50.698C334.014 52.804 332.628 54.01 330.54 54.01C328.452 54.01 327.084 53.128 327.084 50.554ZM338.627 55V50.176C338.627 48.178 339.419 47.044 341.219 47.044C342.767 47.044 343.397 47.782 343.397 49.294V49.978H344.675V49.096C344.675 47.44 343.775 45.928 341.723 45.928C339.869 45.928 338.861 47.116 338.591 48.538H338.501V46.108H337.349V55H338.627ZM347.344 44.974V42.94H346.066V44.974H347.344ZM347.344 55V46.108H346.066V55H347.344ZM354.317 55L358.565 46.108H357.179L353.597 53.74H353.489L349.889 46.108H348.503L352.751 55H354.317ZM363.967 55.18C366.451 55.18 368.287 53.902 368.287 52.048V51.922H367.009V52.048C367.009 53.344 366.037 54.118 363.949 54.118C361.591 54.118 360.565 52.912 360.493 50.914H368.323C368.377 50.68 368.413 50.41 368.413 50.086C368.413 47.44 366.559 45.928 363.949 45.928C361.087 45.928 359.287 47.854 359.287 50.554C359.287 53.38 361.105 55.18 363.967 55.18ZM363.931 46.99C366.019 46.99 367.207 47.98 367.207 49.852C367.207 49.942 367.207 50.032 367.207 50.122H360.493C360.583 48.178 361.627 46.99 363.931 46.99ZM134.984 75.18C137.468 75.18 139.412 73.704 139.412 71.562V71.418H138.152V71.526C138.152 73.11 137 74.01 134.966 74.01C132.59 74.01 131.564 72.732 131.564 70.554C131.564 68.376 132.59 67.098 134.966 67.098C137 67.098 138.152 67.998 138.152 69.582V69.69H139.412V69.546C139.412 67.404 137.468 65.928 134.984 65.928C132.14 65.928 130.286 67.854 130.286 70.554C130.286 73.254 132.14 75.18 134.984 75.18ZM142.312 75V62.94H141.034V75H142.312ZM145.65 64.974V62.94H144.372V64.974H145.65ZM145.65 75V66.108H144.372V75H145.65ZM151.958 75.18C154.442 75.18 156.386 73.704 156.386 71.562V71.418H155.126V71.526C155.126 73.11 153.974 74.01 151.94 74.01C149.564 74.01 148.538 72.732 148.538 70.554C148.538 68.376 149.564 67.098 151.94 67.098C153.974 67.098 155.126 67.998 155.126 69.582V69.69H156.386V69.546C156.386 67.404 154.442 65.928 151.958 65.928C149.114 65.928 147.26 67.854 147.26 70.554C147.26 73.254 149.114 75.18 151.958 75.18ZM159.287 75V71.004H162.257L165.245 75H166.739L163.319 70.356L166.757 66.108H165.245L162.275 69.834H159.287V62.94H158.009V75H159.287ZM171.809 75.18C174.113 75.18 175.769 74.298 175.769 72.624C175.769 71.184 174.743 70.536 172.835 70.266L170.657 69.96C169.181 69.744 168.713 69.42 168.713 68.502C168.713 67.44 169.487 66.99 171.359 66.99C173.627 66.99 174.329 67.71 174.329 69.042V69.132H175.607V69.096C175.607 67.008 173.951 65.928 171.395 65.928C168.947 65.928 167.453 66.918 167.453 68.484C167.453 69.96 168.479 70.59 170.099 70.806L172.475 71.148C173.951 71.382 174.509 71.688 174.509 72.624C174.509 73.65 173.825 74.118 171.827 74.118C169.649 74.118 168.767 73.596 168.767 72.102V71.994H167.489V72.03C167.489 74.082 169.073 75.18 171.809 75.18ZM183.039 75.18C185.109 75.18 186.675 74.244 187.197 72.606H187.287V75H188.439V69.438C188.439 67.476 187.287 65.928 184.587 65.928C181.851 65.928 180.303 67.458 180.303 69.33V69.402H181.581V69.33C181.581 67.764 182.589 67.08 184.497 67.08C186.441 67.08 187.197 67.764 187.197 69.492V70.176L182.967 70.644C181.311 70.824 180.105 71.454 180.105 72.912C180.105 74.352 181.293 75.18 183.039 75.18ZM181.383 72.822C181.383 71.904 182.031 71.58 183.363 71.454L187.197 71.022V71.094C187.197 73.236 185.487 74.19 183.327 74.19C181.977 74.19 181.383 73.722 181.383 72.822ZM191.727 75V70.698C191.727 68.412 192.861 67.098 195.021 67.098C197.055 67.098 197.937 68.16 197.937 69.996V75H199.215V69.816C199.215 67.71 197.973 65.928 195.471 65.928C193.257 65.928 191.997 67.386 191.691 68.898H191.601V66.108H190.449V75H191.727ZM205.039 75.18C207.001 75.18 208.441 74.154 208.873 72.372H208.945V75H210.115V62.94H208.837V68.592H208.747C208.351 67.062 207.037 65.928 204.931 65.928C202.195 65.928 200.611 67.854 200.611 70.554C200.611 73.254 202.195 75.18 205.039 75.18ZM201.907 70.554C201.907 67.98 203.293 67.116 205.327 67.116C207.523 67.116 208.837 68.34 208.837 70.536V70.698C208.837 72.804 207.451 74.01 205.363 74.01C203.275 74.01 201.907 73.128 201.907 70.554ZM216.664 64.974V62.94H215.386V64.974H216.664ZM216.664 75V66.108H215.386V75H216.664ZM220.002 75V70.698C220.002 68.412 221.136 67.098 223.296 67.098C225.33 67.098 226.212 68.16 226.212 69.996V75H227.49V69.816C227.49 67.71 226.248 65.928 223.746 65.928C221.532 65.928 220.272 67.386 219.966 68.898H219.876V66.108H218.724V75H220.002ZM233.728 75.18C236.212 75.18 238.156 73.704 238.156 71.562V71.418H236.896V71.526C236.896 73.11 235.744 74.01 233.71 74.01C231.334 74.01 230.308 72.732 230.308 70.554C230.308 68.376 231.334 67.098 233.71 67.098C235.744 67.098 236.896 67.998 236.896 69.582V69.69H238.156V69.546C238.156 67.404 236.212 65.928 233.728 65.928C230.884 65.928 229.03 67.854 229.03 70.554C229.03 73.254 230.884 75.18 233.728 75.18ZM241.056 75V70.176C241.056 68.178 241.848 67.044 243.648 67.044C245.196 67.044 245.826 67.782 245.826 69.294V69.978H247.104V69.096C247.104 67.44 246.204 65.928 244.152 65.928C242.298 65.928 241.29 67.116 241.02 68.538H240.93V66.108H239.778V75H241.056ZM252.725 75.18C255.209 75.18 257.045 73.902 257.045 72.048V71.922H255.767V72.048C255.767 73.344 254.795 74.118 252.707 74.118C250.349 74.118 249.323 72.912 249.251 70.914H257.081C257.135 70.68 257.171 70.41 257.171 70.086C257.171 67.44 255.317 65.928 252.707 65.928C249.845 65.928 248.045 67.854 248.045 70.554C248.045 73.38 249.863 75.18 252.725 75.18ZM252.689 66.99C254.777 66.99 255.965 67.98 255.965 69.852C255.965 69.942 255.965 70.032 255.965 70.122H249.251C249.341 68.178 250.385 66.99 252.689 66.99ZM261.242 75.18C263.312 75.18 264.878 74.244 265.4 72.606H265.49V75H266.642V69.438C266.642 67.476 265.49 65.928 262.79 65.928C260.054 65.928 258.506 67.458 258.506 69.33V69.402H259.784V69.33C259.784 67.764 260.792 67.08 262.7 67.08C264.644 67.08 265.4 67.764 265.4 69.492V70.176L261.17 70.644C259.514 70.824 258.308 71.454 258.308 72.912C258.308 74.352 259.496 75.18 261.242 75.18ZM259.586 72.822C259.586 71.904 260.234 71.58 261.566 71.454L265.4 71.022V71.094C265.4 73.236 263.69 74.19 261.53 74.19C260.18 74.19 259.586 73.722 259.586 72.822ZM272.559 75.18C274.863 75.18 276.519 74.298 276.519 72.624C276.519 71.184 275.493 70.536 273.585 70.266L271.407 69.96C269.931 69.744 269.463 69.42 269.463 68.502C269.463 67.44 270.237 66.99 272.109 66.99C274.377 66.99 275.079 67.71 275.079 69.042V69.132H276.357V69.096C276.357 67.008 274.701 65.928 272.145 65.928C269.697 65.928 268.203 66.918 268.203 68.484C268.203 69.96 269.229 70.59 270.849 70.806L273.225 71.148C274.701 71.382 275.259 71.688 275.259 72.624C275.259 73.65 274.575 74.118 272.577 74.118C270.399 74.118 269.517 73.596 269.517 72.102V71.994H268.239V72.03C268.239 74.082 269.823 75.18 272.559 75.18ZM282.338 75.18C284.822 75.18 286.658 73.902 286.658 72.048V71.922H285.38V72.048C285.38 73.344 284.408 74.118 282.32 74.118C279.962 74.118 278.936 72.912 278.864 70.914H286.694C286.748 70.68 286.784 70.41 286.784 70.086C286.784 67.44 284.93 65.928 282.32 65.928C279.458 65.928 277.658 67.854 277.658 70.554C277.658 73.38 279.476 75.18 282.338 75.18ZM282.302 66.99C284.39 66.99 285.578 67.98 285.578 69.852C285.578 69.942 285.578 70.032 285.578 70.122H278.864C278.954 68.178 279.998 66.99 282.302 66.99ZM295.852 75.18C298.336 75.18 300.28 73.704 300.28 71.562V71.418H299.02V71.526C299.02 73.11 297.868 74.01 295.834 74.01C293.458 74.01 292.432 72.732 292.432 70.554C292.432 68.376 293.458 67.098 295.834 67.098C297.868 67.098 299.02 67.998 299.02 69.582V69.69H300.28V69.546C300.28 67.404 298.336 65.928 295.852 65.928C293.008 65.928 291.154 67.854 291.154 70.554C291.154 73.254 293.008 75.18 295.852 75.18ZM306.258 75.18C309.174 75.18 311.1 73.254 311.1 70.554C311.1 67.854 309.174 65.928 306.258 65.928C303.36 65.928 301.434 67.854 301.434 70.554C301.434 73.254 303.36 75.18 306.258 75.18ZM306.258 74.028C303.81 74.028 302.694 72.714 302.694 70.554C302.694 68.412 303.81 67.08 306.258 67.08C308.706 67.08 309.84 68.412 309.84 70.554C309.84 72.714 308.706 74.028 306.258 74.028ZM313.989 75V70.698C313.989 68.412 315.123 67.098 317.283 67.098C319.317 67.098 320.199 68.16 320.199 69.996V75H321.477V69.816C321.477 67.71 320.235 65.928 317.733 65.928C315.519 65.928 314.259 67.386 313.953 68.898H313.863V66.108H312.711V75H313.989ZM328.381 75L332.629 66.108H331.243L327.661 73.74H327.553L323.953 66.108H322.567L326.815 75H328.381ZM338.03 75.18C340.514 75.18 342.35 73.902 342.35 72.048V71.922H341.072V72.048C341.072 73.344 340.1 74.118 338.012 74.118C335.654 74.118 334.628 72.912 334.556 70.914H342.386C342.44 70.68 342.476 70.41 342.476 70.086C342.476 67.44 340.622 65.928 338.012 65.928C335.15 65.928 333.35 67.854 333.35 70.554C333.35 73.38 335.168 75.18 338.03 75.18ZM337.994 66.99C340.082 66.99 341.27 67.98 341.27 69.852C341.27 69.942 341.27 70.032 341.27 70.122H334.556C334.646 68.178 335.69 66.99 337.994 66.99ZM345.359 75V70.176C345.359 68.178 346.151 67.044 347.951 67.044C349.499 67.044 350.129 67.782 350.129 69.294V69.978H351.407V69.096C351.407 67.44 350.507 65.928 348.455 65.928C346.601 65.928 345.593 67.116 345.323 68.538H345.233V66.108H344.081V75H345.359ZM356.704 75.18C359.008 75.18 360.664 74.298 360.664 72.624C360.664 71.184 359.638 70.536 357.73 70.266L355.552 69.96C354.076 69.744 353.608 69.42 353.608 68.502C353.608 67.44 354.382 66.99 356.254 66.99C358.522 66.99 359.224 67.71 359.224 69.042V69.132H360.502V69.096C360.502 67.008 358.846 65.928 356.29 65.928C353.842 65.928 352.348 66.918 352.348 68.484C352.348 69.96 353.374 70.59 354.994 70.806L357.37 71.148C358.846 71.382 359.404 71.688 359.404 72.624C359.404 73.65 358.72 74.118 356.722 74.118C354.544 74.118 353.662 73.596 353.662 72.102V71.994H352.384V72.03C352.384 74.082 353.968 75.18 356.704 75.18ZM363.531 64.974V62.94H362.253V64.974H363.531ZM363.531 75V66.108H362.253V75H363.531ZM369.947 75.18C372.863 75.18 374.789 73.254 374.789 70.554C374.789 67.854 372.863 65.928 369.947 65.928C367.049 65.928 365.123 67.854 365.123 70.554C365.123 73.254 367.049 75.18 369.947 75.18ZM369.947 74.028C367.499 74.028 366.383 72.714 366.383 70.554C366.383 68.412 367.499 67.08 369.947 67.08C372.395 67.08 373.529 68.412 373.529 70.554C373.529 72.714 372.395 74.028 369.947 74.028ZM377.677 75V70.698C377.677 68.412 378.811 67.098 380.971 67.098C383.005 67.098 383.887 68.16 383.887 69.996V75H385.165V69.816C385.165 67.71 383.923 65.928 381.421 65.928C379.207 65.928 377.947 67.386 377.641 68.898H377.551V66.108H376.399V75H377.677ZM388.199 75V72.498H386.615V75H388.199Z" fill="white"/>
<rect x="129.656" y="1" width="261" height="99" stroke="black"/>
<path d="M415.043 25.3874C415.043 11.9186 404.125 1 390.656 1V36.2976H415.043V25.3874Z" fill="black" stroke="black"/>
<rect width="24.3874" height="28.4048" transform="matrix(-1 0 0 1 415.043 36.2976)" fill="black" stroke="black"/>
<path d="M415.043 75.6126C415.043 89.0814 404.125 100 390.656 100V64.7024H415.043V75.6126Z" fill="black" stroke="black"/>
</svg>
