<svg width="446" height="158" viewBox="0 0 446 158" fill="none" xmlns="http://www.w3.org/2000/svg">
<path d="M379.043 23C355.295 23 336.043 42.2518 336.043 66L336.043 115C336.043 138.748 355.295 158 379.043 158L446.043 158L446.043 23L379.043 23Z" fill="black"/>
<circle cx="9" cy="9" r="9" transform="matrix(4.37114e-08 1 1 -4.37114e-08 310.043 81)" fill="#ED0000"/>
<path d="M285.775 25.3874C285.775 11.9186 274.856 1 261.387 1V36.2976H285.775V25.3874Z" fill="black" stroke="black"/>
<rect width="24.3874" height="21.4048" transform="matrix(-1 0 0 1 285.775 36.2979)" fill="black" stroke="black"/>
<path fill-rule="evenodd" clip-rule="evenodd" d="M285.332 73.2617C285.623 71.7566 285.775 70.2022 285.775 68.6123V57.7021H261.387V92.9997C267.293 92.9997 272.708 90.9006 276.928 87.4078C281.138 90.2123 287.888 92.8781 296.043 91.3953C293.797 90.4326 285.133 84.6567 285.454 73.1047C285.415 73.1583 285.374 73.2106 285.332 73.2617Z" fill="black"/>
<path d="M285.332 73.2617L285.718 73.5802L284.841 73.1669L285.332 73.2617ZM285.775 57.7021V57.2021H286.275V57.7021H285.775ZM261.387 57.7021H260.887V57.2021H261.387V57.7021ZM261.387 92.9997V93.4997H260.887V92.9997H261.387ZM276.928 87.4078L276.609 87.0226L276.896 86.7855L277.205 86.9917L276.928 87.4078ZM296.043 91.3953L296.24 90.9357L297.767 91.5901L296.133 91.8872L296.043 91.3953ZM285.454 73.1047L285.05 72.8106L285.999 71.5058L285.954 73.1186L285.454 73.1047ZM286.275 68.6123C286.275 70.2342 286.12 71.8203 285.823 73.3565L284.841 73.1669C285.126 71.6929 285.275 70.1703 285.275 68.6123H286.275ZM286.275 57.7021V68.6123H285.275V57.7021H286.275ZM261.387 57.2021H285.775V58.2021H261.387V57.2021ZM260.887 92.9997V57.7021H261.887V92.9997H260.887ZM277.247 87.793C272.941 91.3573 267.414 93.4997 261.387 93.4997V92.4997C267.172 92.4997 272.476 90.444 276.609 87.0226L277.247 87.793ZM296.133 91.8872C287.818 93.399 280.938 90.68 276.651 87.8239L277.205 86.9917C281.337 89.7446 287.958 92.3572 295.954 90.9034L296.133 91.8872ZM285.954 73.1186C285.797 78.7566 287.83 82.976 290.176 85.9086C292.532 88.8535 295.194 90.4872 296.24 90.9357L295.846 91.8549C294.647 91.3407 291.853 89.6051 289.395 86.5333C286.928 83.4493 284.79 79.0048 284.954 73.0908L285.954 73.1186ZM284.947 72.9432C284.982 72.8999 285.017 72.8557 285.05 72.8106L285.858 73.3988C285.813 73.4608 285.766 73.5213 285.718 73.5802L284.947 72.9432Z" fill="black"/>
<rect width="236" height="92" transform="matrix(-1 0 0 1 261.387 1)" fill="black"/>
<path d="M31.2915 33.16C34.0755 33.16 36.1555 31.608 36.1555 29.176V28.984H34.9235V29.176C34.9235 31 33.6595 32.056 31.3075 32.056C28.6355 32.056 27.1475 30.552 27.1475 27.64C27.1475 24.728 28.6355 23.224 31.3075 23.224C33.6595 23.224 34.9235 24.28 34.9235 26.104V26.296H36.1555V26.104C36.1555 23.672 34.0595 22.12 31.2915 22.12C28.1555 22.12 25.9475 24.296 25.9475 27.64C25.9475 30.984 28.1555 33.16 31.2915 33.16ZM38.7316 33V28.712C38.7316 26.936 39.4356 25.928 41.0356 25.928C42.4116 25.928 42.9716 26.584 42.9716 27.928V28.536H44.1076V27.752C44.1076 26.28 43.3076 24.936 41.4836 24.936C39.8356 24.936 38.9396 25.992 38.6996 27.256H38.6196V25.096H37.5956V33H38.7316ZM49.1037 33.16C51.3117 33.16 52.9437 32.024 52.9437 30.376V30.264H51.8077V30.376C51.8077 31.528 50.9437 32.216 49.0877 32.216C46.9917 32.216 46.0797 31.144 46.0157 29.368H52.9757C53.0237 29.16 53.0557 28.92 53.0557 28.632C53.0557 26.28 51.4077 24.936 49.0877 24.936C46.5437 24.936 44.9437 26.648 44.9437 29.048C44.9437 31.56 46.5597 33.16 49.1037 33.16ZM49.0717 25.88C50.9277 25.88 51.9837 26.76 51.9837 28.424C51.9837 28.504 51.9837 28.584 51.9837 28.664H46.0157C46.0957 26.936 47.0237 25.88 49.0717 25.88ZM56.6745 33.16C58.5145 33.16 59.9065 32.328 60.3705 30.872H60.4505V33H61.4745V28.056C61.4745 26.312 60.4505 24.936 58.0505 24.936C55.6185 24.936 54.2425 26.296 54.2425 27.96V28.024H55.3785V27.96C55.3785 26.568 56.2745 25.96 57.9705 25.96C59.6985 25.96 60.3705 26.568 60.3705 28.104V28.712L56.6105 29.128C55.1385 29.288 54.0665 29.848 54.0665 31.144C54.0665 32.424 55.1225 33.16 56.6745 33.16ZM55.2025 31.064C55.2025 30.248 55.7785 29.96 56.9625 29.848L60.3705 29.464V29.528C60.3705 31.432 58.8505 32.28 56.9305 32.28C55.7305 32.28 55.2025 31.864 55.2025 31.064ZM68.1098 33V31.96H66.6698C65.5178 31.96 64.9738 31.656 64.9738 30.552V26.072H68.1098V25.096H64.9738V23.208H63.8218V25.096H62.4138V26.072H63.8218V30.488C63.8218 32.344 64.8298 33 66.3978 33H68.1098ZM73.0356 33.16C75.2436 33.16 76.8756 32.024 76.8756 30.376V30.264H75.7396V30.376C75.7396 31.528 74.8756 32.216 73.0196 32.216C70.9236 32.216 70.0116 31.144 69.9476 29.368H76.9076C76.9556 29.16 76.9876 28.92 76.9876 28.632C76.9876 26.28 75.3396 24.936 73.0196 24.936C70.4756 24.936 68.8756 26.648 68.8756 29.048C68.8756 31.56 70.4916 33.16 73.0356 33.16ZM73.0036 25.88C74.8596 25.88 75.9156 26.76 75.9156 28.424C75.9156 28.504 75.9156 28.584 75.9156 28.664H69.9476C70.0276 26.936 70.9556 25.88 73.0036 25.88ZM83.4638 33.16C85.3038 33.16 86.6958 32.328 87.1598 30.872H87.2398V33H88.2638V28.056C88.2638 26.312 87.2398 24.936 84.8398 24.936C82.4078 24.936 81.0318 26.296 81.0318 27.96V28.024H82.1678V27.96C82.1678 26.568 83.0638 25.96 84.7598 25.96C86.4878 25.96 87.1598 26.568 87.1598 28.104V28.712L83.3998 29.128C81.9278 29.288 80.8558 29.848 80.8558 31.144C80.8558 32.424 81.9118 33.16 83.4638 33.16ZM81.9918 31.064C81.9918 30.248 82.5678 29.96 83.7518 29.848L87.1598 29.464V29.528C87.1598 31.432 85.6398 32.28 83.7198 32.28C82.5198 32.28 81.9918 31.864 81.9918 31.064ZM96.3807 33.16C98.4287 33.16 99.9007 32.376 99.9007 30.888C99.9007 29.608 98.9887 29.032 97.2927 28.792L95.3567 28.52C94.0447 28.328 93.6287 28.04 93.6287 27.224C93.6287 26.28 94.3167 25.88 95.9807 25.88C97.9967 25.88 98.6207 26.52 98.6207 27.704V27.784H99.7567V27.752C99.7567 25.896 98.2847 24.936 96.0127 24.936C93.8367 24.936 92.5087 25.816 92.5087 27.208C92.5087 28.52 93.4207 29.08 94.8607 29.272L96.9727 29.576C98.2847 29.784 98.7807 30.056 98.7807 30.888C98.7807 31.8 98.1727 32.216 96.3967 32.216C94.4607 32.216 93.6767 31.752 93.6767 30.424V30.328H92.5407V30.36C92.5407 32.184 93.9487 33.16 96.3807 33.16ZM106.161 33V31.96H104.721C103.569 31.96 103.025 31.656 103.025 30.552V26.072H106.161V25.096H103.025V23.208H101.873V25.096H100.465V26.072H101.873V30.488C101.873 32.344 102.881 33 104.449 33H106.161ZM110.639 33.16C112.607 33.16 113.743 31.88 114.015 30.536H114.095V33H115.119V25.096H113.983V28.936C113.983 30.968 112.975 32.136 111.039 32.136C109.215 32.136 108.415 31.192 108.415 29.544V25.096H107.279V29.72C107.279 31.592 108.383 33.16 110.639 33.16ZM118.086 33V29.176C118.086 27.144 119.094 25.976 121.014 25.976C122.822 25.976 123.606 26.92 123.606 28.552V33H124.742V28.392C124.742 26.52 123.638 24.936 121.414 24.936C119.446 24.936 118.326 26.232 118.054 27.576H117.974V25.096H116.95V33H118.086ZM127.647 33V29.176C127.647 27.144 128.655 25.976 130.575 25.976C132.383 25.976 133.167 26.92 133.167 28.552V33H134.303V28.392C134.303 26.52 133.199 24.936 130.975 24.936C129.007 24.936 127.887 26.232 127.615 27.576H127.535V25.096H126.511V33H127.647ZM137.207 24.088V22.28H136.071V24.088H137.207ZM137.207 33V25.096H136.071V33H137.207ZM140.174 33V29.176C140.174 27.144 141.182 25.976 143.102 25.976C144.91 25.976 145.694 26.92 145.694 28.552V33H146.83V28.392C146.83 26.52 145.726 24.936 143.502 24.936C141.534 24.936 140.414 26.232 140.142 27.576H140.062V25.096H139.038V33H140.174ZM151.991 32.36C153.815 32.36 154.983 31.464 155.303 30.248H155.383V32.312C155.383 34.28 154.583 34.904 152.535 34.904C150.775 34.904 149.847 34.36 149.847 32.968H148.711C148.711 34.808 150.343 35.88 152.487 35.88C154.871 35.88 156.519 34.856 156.519 32.248V25.096H155.495V27.128H155.415C155.095 25.72 153.783 24.936 152.119 24.936C149.687 24.936 148.199 26.488 148.199 28.648C148.199 30.808 149.639 32.36 151.991 32.36ZM149.335 28.648C149.335 26.632 150.599 25.944 152.375 25.944C154.199 25.944 155.383 26.872 155.383 28.424V28.696C155.383 30.376 154.247 31.352 152.295 31.352C150.583 31.352 149.335 30.664 149.335 28.648ZM162.356 24.088V22.28H161.22V24.088H162.356ZM162.356 33V25.096H161.22V33H162.356ZM165.323 33V29.176C165.323 27.08 166.075 25.976 167.995 25.976C169.659 25.976 170.395 26.792 170.395 28.552V33H171.531V29.176C171.531 27.08 172.299 25.976 174.203 25.976C175.867 25.976 176.619 26.792 176.619 28.552V33H177.755V28.392C177.755 26.392 176.683 24.936 174.619 24.936C172.635 24.936 171.691 26.2 171.467 27.56H171.387C171.131 26.024 170.139 24.936 168.379 24.936C166.411 24.936 165.499 26.152 165.275 27.48H165.211V25.096H164.187V33H165.323ZM181.721 33.16C183.561 33.16 184.953 32.328 185.417 30.872H185.497V33H186.521V28.056C186.521 26.312 185.497 24.936 183.097 24.936C180.665 24.936 179.289 26.296 179.289 27.96V28.024H180.425V27.96C180.425 26.568 181.321 25.96 183.017 25.96C184.745 25.96 185.417 26.568 185.417 28.104V28.712L181.657 29.128C180.185 29.288 179.113 29.848 179.113 31.144C179.113 32.424 180.169 33.16 181.721 33.16ZM180.249 31.064C180.249 30.248 180.825 29.96 182.009 29.848L185.417 29.464V29.528C185.417 31.432 183.897 32.28 181.977 32.28C180.777 32.28 180.249 31.864 180.249 31.064ZM191.7 32.36C193.524 32.36 194.692 31.464 195.012 30.248H195.092V32.312C195.092 34.28 194.292 34.904 192.244 34.904C190.484 34.904 189.556 34.36 189.556 32.968H188.42C188.42 34.808 190.052 35.88 192.196 35.88C194.58 35.88 196.228 34.856 196.228 32.248V25.096H195.204V27.128H195.124C194.804 25.72 193.492 24.936 191.828 24.936C189.396 24.936 187.908 26.488 187.908 28.648C187.908 30.808 189.348 32.36 191.7 32.36ZM189.044 28.648C189.044 26.632 190.308 25.944 192.084 25.944C193.908 25.944 195.092 26.872 195.092 28.424V28.696C195.092 30.376 193.956 31.352 192.004 31.352C190.292 31.352 189.044 30.664 189.044 28.648ZM201.832 33.16C204.04 33.16 205.672 32.024 205.672 30.376V30.264H204.536V30.376C204.536 31.528 203.672 32.216 201.816 32.216C199.72 32.216 198.808 31.144 198.744 29.368H205.704C205.752 29.16 205.784 28.92 205.784 28.632C205.784 26.28 204.136 24.936 201.816 24.936C199.272 24.936 197.672 26.648 197.672 29.048C197.672 31.56 199.288 33.16 201.832 33.16ZM201.8 25.88C203.656 25.88 204.712 26.76 204.712 28.424C204.712 28.504 204.712 28.584 204.712 28.664H198.744C198.824 26.936 199.752 25.88 201.8 25.88ZM210.683 33.16C212.731 33.16 214.203 32.376 214.203 30.888C214.203 29.608 213.291 29.032 211.595 28.792L209.659 28.52C208.347 28.328 207.931 28.04 207.931 27.224C207.931 26.28 208.619 25.88 210.283 25.88C212.299 25.88 212.923 26.52 212.923 27.704V27.784H214.059V27.752C214.059 25.896 212.587 24.936 210.315 24.936C208.139 24.936 206.811 25.816 206.811 27.208C206.811 28.52 207.723 29.08 209.163 29.272L211.275 29.576C212.587 29.784 213.083 30.056 213.083 30.888C213.083 31.8 212.475 32.216 210.699 32.216C208.763 32.216 207.979 31.752 207.979 30.424V30.328H206.843V30.36C206.843 32.184 208.251 33.16 210.683 33.16ZM221.608 33L223.688 27.832L224.312 26.072H224.392L225.016 27.832L227.064 33H228.488L231.048 25.096H229.88L228.184 30.328L227.8 31.992H227.704L227.16 30.232L225.096 25.096H223.64L221.56 30.232L221.016 32.008H220.92L220.52 30.328L218.84 25.096H217.672L220.2 33H221.608ZM233.216 24.088V22.28H232.08V24.088H233.216ZM233.216 33V25.096H232.08V33H233.216ZM239.895 33V31.96H238.455C237.303 31.96 236.759 31.656 236.759 30.552V26.072H239.895V25.096H236.759V23.208H235.607V25.096H234.199V26.072H235.607V30.488C235.607 32.344 236.615 33 238.183 33H239.895ZM242.197 33V29.288C242.197 27.32 243.013 25.976 245.125 25.976C246.901 25.976 247.749 26.744 247.749 28.552V33H248.885V28.408C248.885 26.408 247.781 24.936 245.573 24.936C243.557 24.936 242.533 26.184 242.277 27.512H242.197V22.28H241.061V33H242.197ZM27.4835 51V47.288C27.4835 45.32 28.2995 43.976 30.4115 43.976C32.1875 43.976 33.0355 44.744 33.0355 46.552V51H34.1715V46.408C34.1715 44.408 33.0675 42.936 30.8595 42.936C28.8435 42.936 27.8195 44.184 27.5635 45.512H27.4835V40.28H26.3475V51H27.4835ZM39.7306 51.16C41.9386 51.16 43.5706 50.024 43.5706 48.376V48.264H42.4346V48.376C42.4346 49.528 41.5706 50.216 39.7146 50.216C37.6186 50.216 36.7066 49.144 36.6426 47.368H43.6026C43.6506 47.16 43.6826 46.92 43.6826 46.632C43.6826 44.28 42.0346 42.936 39.7146 42.936C37.1706 42.936 35.5706 44.648 35.5706 47.048C35.5706 49.56 37.1866 51.16 39.7306 51.16ZM39.6986 43.88C41.5546 43.88 42.6106 44.76 42.6106 46.424C42.6106 46.504 42.6106 46.584 42.6106 46.664H36.6426C36.7226 44.936 37.6506 43.88 39.6986 43.88ZM46.2453 51V40.28H45.1093V51H46.2453ZM49.2122 53.72V48.68H49.2282C49.5962 50.2 50.8602 51.16 52.6042 51.16C55.1162 51.16 56.5082 49.448 56.5082 47.048C56.5082 44.648 55.1002 42.936 52.6362 42.936C50.7642 42.936 49.5802 43.896 49.2282 45.32H49.1002V43.096H48.0762V53.72H49.2122ZM49.2122 47.192V47.048C49.2122 45.096 50.3642 43.992 52.3322 43.992C54.1242 43.992 55.3562 44.76 55.3562 47.048C55.3562 49.336 54.1402 50.12 52.3002 50.12C50.4442 50.12 49.2122 49.064 49.2122 47.192ZM64.5538 51.16C67.1458 51.16 68.8578 49.448 68.8578 47.048C68.8578 44.648 67.1458 42.936 64.5538 42.936C61.9778 42.936 60.2658 44.648 60.2658 47.048C60.2658 49.448 61.9778 51.16 64.5538 51.16ZM64.5538 50.136C62.3778 50.136 61.3858 48.968 61.3858 47.048C61.3858 45.144 62.3778 43.96 64.5538 43.96C66.7298 43.96 67.7378 45.144 67.7378 47.048C67.7378 48.968 66.7298 50.136 64.5538 50.136ZM71.9853 51V44.072H75.1693V43.096H71.9853C71.9213 41.656 72.7053 41.176 74.1453 41.176H75.1693V40.28H74.3053C72.2573 40.28 70.9933 41.224 70.8653 43.096H69.5853V44.072H70.8493V51H71.9853ZM83.2748 51.16C86.0428 51.16 87.7548 50.024 87.7548 48.024C87.7548 46.6 86.8908 45.672 85.3708 45.384V45.272C86.7148 45.032 87.4188 44.136 87.4188 42.936C87.4188 41.16 85.8988 40.12 83.2748 40.12C80.0908 40.12 78.6668 41.704 78.6668 43.688V43.88H79.8508V43.736C79.8508 42.056 80.7468 41.208 83.1948 41.208C85.4988 41.208 86.2828 41.832 86.2828 43.112C86.2828 44.328 85.4028 44.92 83.7868 44.92H81.1308V45.896H84.0268C85.6588 45.896 86.6028 46.536 86.6028 47.896C86.6028 49.416 85.6428 50.072 83.2428 50.072C80.6668 50.072 79.8508 49.224 79.8508 47.544V47.336H78.6668V47.592C78.6668 49.608 80.0428 51.16 83.2748 51.16ZM93.8311 51C97.0471 51 99.0951 48.92 99.0951 45.64C99.0951 42.36 97.0471 40.28 93.8311 40.28H89.1751V51H93.8311ZM93.8311 41.32C96.5511 41.32 97.8951 42.728 97.8951 45.64C97.8951 48.552 96.5511 49.96 93.8311 49.96H90.3271V41.32H93.8311ZM104.525 51V46.712C104.525 44.936 105.229 43.928 106.829 43.928C108.205 43.928 108.765 44.584 108.765 45.928V46.536H109.901V45.752C109.901 44.28 109.101 42.936 107.277 42.936C105.629 42.936 104.733 43.992 104.493 45.256H104.413V43.096H103.389V51H104.525ZM114.897 51.16C117.105 51.16 118.737 50.024 118.737 48.376V48.264H117.601V48.376C117.601 49.528 116.737 50.216 114.881 50.216C112.785 50.216 111.873 49.144 111.809 47.368H118.769C118.817 47.16 118.849 46.92 118.849 46.632C118.849 44.28 117.201 42.936 114.881 42.936C112.337 42.936 110.737 44.648 110.737 47.048C110.737 49.56 112.353 51.16 114.897 51.16ZM114.865 43.88C116.721 43.88 117.777 44.76 117.777 46.424C117.777 46.504 117.777 46.584 117.777 46.664H111.809C111.889 44.936 112.817 43.88 114.865 43.88ZM121.412 51V47.176C121.412 45.144 122.42 43.976 124.34 43.976C126.148 43.976 126.932 44.92 126.932 46.552V51H128.068V46.392C128.068 44.52 126.964 42.936 124.74 42.936C122.772 42.936 121.652 44.232 121.38 45.576H121.3V43.096H120.276V51H121.412ZM133.245 51.16C134.989 51.16 136.269 50.248 136.653 48.664H136.717V51H137.757V40.28H136.621V45.304H136.541C136.189 43.944 135.021 42.936 133.149 42.936C130.717 42.936 129.309 44.648 129.309 47.048C129.309 49.448 130.717 51.16 133.245 51.16ZM130.461 47.048C130.461 44.76 131.693 43.992 133.501 43.992C135.453 43.992 136.621 45.08 136.621 47.032V47.176C136.621 49.048 135.389 50.12 133.533 50.12C131.677 50.12 130.461 49.336 130.461 47.048ZM143.345 51.16C145.553 51.16 147.185 50.024 147.185 48.376V48.264H146.049V48.376C146.049 49.528 145.185 50.216 143.329 50.216C141.233 50.216 140.321 49.144 140.257 47.368H147.217C147.265 47.16 147.297 46.92 147.297 46.632C147.297 44.28 145.649 42.936 143.329 42.936C140.785 42.936 139.185 44.648 139.185 47.048C139.185 49.56 140.801 51.16 143.345 51.16ZM143.313 43.88C145.169 43.88 146.225 44.76 146.225 46.424C146.225 46.504 146.225 46.584 146.225 46.664H140.257C140.337 44.936 141.265 43.88 143.313 43.88ZM149.86 51V46.712C149.86 44.936 150.564 43.928 152.164 43.928C153.54 43.928 154.1 44.584 154.1 45.928V46.536H155.236V45.752C155.236 44.28 154.436 42.936 152.612 42.936C150.964 42.936 150.068 43.992 149.828 45.256H149.748V43.096H148.724V51H149.86ZM157.608 42.088V40.28H156.472V42.088H157.608ZM157.608 51V43.096H156.472V51H157.608ZM160.575 51V47.176C160.575 45.144 161.583 43.976 163.503 43.976C165.311 43.976 166.095 44.92 166.095 46.552V51H167.231V46.392C167.231 44.52 166.127 42.936 163.903 42.936C161.935 42.936 160.815 44.232 160.543 45.576H160.463V43.096H159.439V51H160.575ZM172.391 50.36C174.215 50.36 175.383 49.464 175.703 48.248H175.783V50.312C175.783 52.28 174.983 52.904 172.935 52.904C171.175 52.904 170.247 52.36 170.247 50.968H169.111C169.111 52.808 170.743 53.88 172.887 53.88C175.271 53.88 176.919 52.856 176.919 50.248V43.096H175.895V45.128H175.815C175.495 43.72 174.183 42.936 172.519 42.936C170.087 42.936 168.599 44.488 168.599 46.648C168.599 48.808 170.039 50.36 172.391 50.36ZM169.735 46.648C169.735 44.632 170.999 43.944 172.775 43.944C174.599 43.944 175.783 44.872 175.783 46.424V46.696C175.783 48.376 174.647 49.352 172.695 49.352C170.983 49.352 169.735 48.664 169.735 46.648ZM182.235 51.16C184.283 51.16 185.755 50.376 185.755 48.888C185.755 47.608 184.843 47.032 183.147 46.792L181.211 46.52C179.899 46.328 179.483 46.04 179.483 45.224C179.483 44.28 180.171 43.88 181.835 43.88C183.851 43.88 184.475 44.52 184.475 45.704V45.784H185.611V45.752C185.611 43.896 184.139 42.936 181.867 42.936C179.691 42.936 178.363 43.816 178.363 45.208C178.363 46.52 179.275 47.08 180.715 47.272L182.827 47.576C184.139 47.784 184.635 48.056 184.635 48.888C184.635 49.8 184.027 50.216 182.251 50.216C180.315 50.216 179.531 49.752 179.531 48.424V48.328H178.395V48.36C178.395 50.184 179.803 51.16 182.235 51.16ZM196.041 46.824V45.816H189.545V46.824H196.041ZM203.664 51.16C205.408 51.16 206.688 50.248 207.072 48.664H207.136V51H208.176V40.28H207.04V45.304H206.96C206.608 43.944 205.44 42.936 203.568 42.936C201.136 42.936 199.728 44.648 199.728 47.048C199.728 49.448 201.136 51.16 203.664 51.16ZM200.88 47.048C200.88 44.76 202.112 43.992 203.92 43.992C205.872 43.992 207.04 45.08 207.04 47.032V47.176C207.04 49.048 205.808 50.12 203.952 50.12C202.096 50.12 200.88 49.336 200.88 47.048ZM211.14 51V46.712C211.14 44.936 211.844 43.928 213.444 43.928C214.82 43.928 215.38 44.584 215.38 45.928V46.536H216.516V45.752C216.516 44.28 215.716 42.936 213.892 42.936C212.244 42.936 211.348 43.992 211.108 45.256H211.028V43.096H210.004V51H211.14ZM218.888 42.088V40.28H217.752V42.088H218.888ZM218.888 51V43.096H217.752V51H218.888ZM225.087 51L228.863 43.096H227.631L224.447 49.88H224.351L221.151 43.096H219.919L223.695 51H225.087ZM233.664 51.16C235.872 51.16 237.504 50.024 237.504 48.376V48.264H236.368V48.376C236.368 49.528 235.504 50.216 233.648 50.216C231.552 50.216 230.64 49.144 230.576 47.368H237.536C237.584 47.16 237.616 46.92 237.616 46.632C237.616 44.28 235.968 42.936 233.648 42.936C231.104 42.936 229.504 44.648 229.504 47.048C229.504 49.56 231.12 51.16 233.664 51.16ZM233.632 43.88C235.488 43.88 236.544 44.76 236.544 46.424C236.544 46.504 236.544 46.584 236.544 46.664H230.576C230.656 44.936 231.584 43.88 233.632 43.88ZM30.1235 69.16C32.3315 69.16 34.0595 67.848 34.0595 65.944V65.816H32.9395V65.912C32.9395 67.32 31.9155 68.12 30.1075 68.12C27.9955 68.12 27.0835 66.984 27.0835 65.048C27.0835 63.112 27.9955 61.976 30.1075 61.976C31.9155 61.976 32.9395 62.776 32.9395 64.184V64.28H34.0595V64.152C34.0595 62.248 32.3315 60.936 30.1235 60.936C27.5955 60.936 25.9475 62.648 25.9475 65.048C25.9475 67.448 27.5955 69.16 30.1235 69.16ZM36.6378 69V58.28H35.5018V69H36.6378ZM39.6047 60.088V58.28H38.4687V60.088H39.6047ZM39.6047 69V61.096H38.4687V69H39.6047ZM45.2116 69.16C47.4196 69.16 49.1476 67.848 49.1476 65.944V65.816H48.0276V65.912C48.0276 67.32 47.0036 68.12 45.1956 68.12C43.0836 68.12 42.1716 66.984 42.1716 65.048C42.1716 63.112 43.0836 61.976 45.1956 61.976C47.0036 61.976 48.0276 62.776 48.0276 64.184V64.28H49.1476V64.152C49.1476 62.248 47.4196 60.936 45.2116 60.936C42.6836 60.936 41.0356 62.648 41.0356 65.048C41.0356 67.448 42.6836 69.16 45.2116 69.16ZM51.726 69V65.448H54.366L57.022 69H58.35L55.31 64.872L58.366 61.096H57.022L54.382 64.408H51.726V58.28H50.59V69H51.726ZM62.8569 69.16C64.905 69.16 66.3769 68.376 66.3769 66.888C66.3769 65.608 65.465 65.032 63.7689 64.792L61.8329 64.52C60.5209 64.328 60.1049 64.04 60.1049 63.224C60.1049 62.28 60.7929 61.88 62.4569 61.88C64.4729 61.88 65.097 62.52 65.097 63.704V63.784H66.233V63.752C66.233 61.896 64.761 60.936 62.4889 60.936C60.3129 60.936 58.9849 61.816 58.9849 63.208C58.9849 64.52 59.8969 65.08 61.3369 65.272L63.4489 65.576C64.761 65.784 65.2569 66.056 65.2569 66.888C65.2569 67.8 64.649 68.216 62.873 68.216C60.9369 68.216 60.1529 67.752 60.1529 66.424V66.328H59.0169V66.36C59.0169 68.184 60.4249 69.16 62.8569 69.16ZM72.8388 69.16C74.6788 69.16 76.0708 68.328 76.5348 66.872H76.6148V69H77.6388V64.056C77.6388 62.312 76.6148 60.936 74.2148 60.936C71.7828 60.936 70.4068 62.296 70.4068 63.96V64.024H71.5428V63.96C71.5428 62.568 72.4388 61.96 74.1348 61.96C75.8628 61.96 76.5348 62.568 76.5348 64.104V64.712L72.7748 65.128C71.3028 65.288 70.2308 65.848 70.2308 67.144C70.2308 68.424 71.2868 69.16 72.8388 69.16ZM71.3668 67.064C71.3668 66.248 71.9428 65.96 73.1268 65.848L76.5348 65.464V65.528C76.5348 67.432 75.0148 68.28 73.0948 68.28C71.8948 68.28 71.3668 67.864 71.3668 67.064ZM80.5622 69V65.176C80.5622 63.144 81.5702 61.976 83.4902 61.976C85.2982 61.976 86.0822 62.92 86.0822 64.552V69H87.2182V64.392C87.2182 62.52 86.1142 60.936 83.8902 60.936C81.9222 60.936 80.8022 62.232 80.5302 63.576H80.4502V61.096H79.4262V69H80.5622ZM92.3948 69.16C94.1388 69.16 95.4188 68.248 95.8028 66.664H95.8668V69H96.9068V58.28H95.7708V63.304H95.6908C95.3388 61.944 94.1708 60.936 92.2988 60.936C89.8668 60.936 88.4588 62.648 88.4588 65.048C88.4588 67.448 89.8668 69.16 92.3948 69.16ZM89.6108 65.048C89.6108 62.76 90.8428 61.992 92.6508 61.992C94.6028 61.992 95.7708 63.08 95.7708 65.032V65.176C95.7708 67.048 94.5388 68.12 92.6828 68.12C90.8268 68.12 89.6108 67.336 89.6108 65.048ZM102.728 60.088V58.28H101.592V60.088H102.728ZM102.728 69V61.096H101.592V69H102.728ZM105.695 69V65.176C105.695 63.144 106.703 61.976 108.623 61.976C110.431 61.976 111.215 62.92 111.215 64.552V69H112.351V64.392C112.351 62.52 111.247 60.936 109.023 60.936C107.055 60.936 105.935 62.232 105.663 63.576H105.583V61.096H104.559V69H105.695ZM117.896 69.16C120.104 69.16 121.832 67.848 121.832 65.944V65.816H120.712V65.912C120.712 67.32 119.688 68.12 117.88 68.12C115.768 68.12 114.856 66.984 114.856 65.048C114.856 63.112 115.768 61.976 117.88 61.976C119.688 61.976 120.712 62.776 120.712 64.184V64.28H121.832V64.152C121.832 62.248 120.104 60.936 117.896 60.936C115.368 60.936 113.72 62.648 113.72 65.048C113.72 67.448 115.368 69.16 117.896 69.16ZM124.41 69V64.712C124.41 62.936 125.114 61.928 126.714 61.928C128.09 61.928 128.65 62.584 128.65 63.928V64.536H129.786V63.752C129.786 62.28 128.986 60.936 127.162 60.936C125.514 60.936 124.618 61.992 124.378 63.256H124.298V61.096H123.274V69H124.41ZM134.782 69.16C136.99 69.16 138.622 68.024 138.622 66.376V66.264H137.486V66.376C137.486 67.528 136.622 68.216 134.766 68.216C132.67 68.216 131.758 67.144 131.694 65.368H138.654C138.702 65.16 138.734 64.92 138.734 64.632C138.734 62.28 137.086 60.936 134.766 60.936C132.222 60.936 130.622 62.648 130.622 65.048C130.622 67.56 132.238 69.16 134.782 69.16ZM134.75 61.88C136.606 61.88 137.662 62.76 137.662 64.424C137.662 64.504 137.662 64.584 137.662 64.664H131.694C131.774 62.936 132.702 61.88 134.75 61.88ZM142.353 69.16C144.193 69.16 145.585 68.328 146.049 66.872H146.129V69H147.153V64.056C147.153 62.312 146.129 60.936 143.729 60.936C141.297 60.936 139.921 62.296 139.921 63.96V64.024H141.057V63.96C141.057 62.568 141.953 61.96 143.649 61.96C145.377 61.96 146.049 62.568 146.049 64.104V64.712L142.289 65.128C140.817 65.288 139.745 65.848 139.745 67.144C139.745 68.424 140.801 69.16 142.353 69.16ZM140.881 67.064C140.881 66.248 141.457 65.96 142.641 65.848L146.049 65.464V65.528C146.049 67.432 144.529 68.28 142.609 68.28C141.409 68.28 140.881 67.864 140.881 67.064ZM152.413 69.16C154.461 69.16 155.933 68.376 155.933 66.888C155.933 65.608 155.021 65.032 153.325 64.792L151.389 64.52C150.077 64.328 149.661 64.04 149.661 63.224C149.661 62.28 150.349 61.88 152.013 61.88C154.029 61.88 154.653 62.52 154.653 63.704V63.784H155.789V63.752C155.789 61.896 154.317 60.936 152.045 60.936C149.869 60.936 148.541 61.816 148.541 63.208C148.541 64.52 149.453 65.08 150.893 65.272L153.005 65.576C154.317 65.784 154.813 66.056 154.813 66.888C154.813 67.8 154.205 68.216 152.429 68.216C150.493 68.216 149.709 67.752 149.709 66.424V66.328H148.573V66.36C148.573 68.184 149.981 69.16 152.413 69.16ZM161.105 69.16C163.313 69.16 164.945 68.024 164.945 66.376V66.264H163.809V66.376C163.809 67.528 162.945 68.216 161.089 68.216C158.993 68.216 158.081 67.144 158.017 65.368H164.977C165.025 65.16 165.057 64.92 165.057 64.632C165.057 62.28 163.409 60.936 161.089 60.936C158.545 60.936 156.945 62.648 156.945 65.048C156.945 67.56 158.561 69.16 161.105 69.16ZM161.073 61.88C162.929 61.88 163.985 62.76 163.985 64.424C163.985 64.504 163.985 64.584 163.985 64.664H158.017C158.097 62.936 159.025 61.88 161.073 61.88ZM173.117 69.16C175.325 69.16 177.053 67.848 177.053 65.944V65.816H175.933V65.912C175.933 67.32 174.909 68.12 173.101 68.12C170.989 68.12 170.077 66.984 170.077 65.048C170.077 63.112 170.989 61.976 173.101 61.976C174.909 61.976 175.933 62.776 175.933 64.184V64.28H177.053V64.152C177.053 62.248 175.325 60.936 173.117 60.936C170.589 60.936 168.941 62.648 168.941 65.048C168.941 67.448 170.589 69.16 173.117 69.16ZM182.368 69.16C184.96 69.16 186.672 67.448 186.672 65.048C186.672 62.648 184.96 60.936 182.368 60.936C179.792 60.936 178.08 62.648 178.08 65.048C178.08 67.448 179.792 69.16 182.368 69.16ZM182.368 68.136C180.192 68.136 179.2 66.968 179.2 65.048C179.2 63.144 180.192 61.96 182.368 61.96C184.544 61.96 185.552 63.144 185.552 65.048C185.552 66.968 184.544 68.136 182.368 68.136ZM189.239 69V65.176C189.239 63.144 190.247 61.976 192.167 61.976C193.975 61.976 194.759 62.92 194.759 64.552V69H195.895V64.392C195.895 62.52 194.791 60.936 192.567 60.936C190.599 60.936 189.479 62.232 189.207 63.576H189.127V61.096H188.103V69H189.239ZM202.032 69L205.808 61.096H204.576L201.392 67.88H201.296L198.096 61.096H196.864L200.64 69H202.032ZM210.609 69.16C212.817 69.16 214.449 68.024 214.449 66.376V66.264H213.313V66.376C213.313 67.528 212.449 68.216 210.593 68.216C208.497 68.216 207.585 67.144 207.521 65.368H214.481C214.529 65.16 214.561 64.92 214.561 64.632C214.561 62.28 212.913 60.936 210.593 60.936C208.049 60.936 206.449 62.648 206.449 65.048C206.449 67.56 208.065 69.16 210.609 69.16ZM210.577 61.88C212.433 61.88 213.489 62.76 213.489 64.424C213.489 64.504 213.489 64.584 213.489 64.664H207.521C207.601 62.936 208.529 61.88 210.577 61.88ZM217.124 69V64.712C217.124 62.936 217.828 61.928 219.428 61.928C220.804 61.928 221.364 62.584 221.364 63.928V64.536H222.5V63.752C222.5 62.28 221.7 60.936 219.876 60.936C218.228 60.936 217.332 61.992 217.092 63.256H217.012V61.096H215.988V69H217.124ZM227.208 69.16C229.256 69.16 230.728 68.376 230.728 66.888C230.728 65.608 229.816 65.032 228.12 64.792L226.184 64.52C224.872 64.328 224.456 64.04 224.456 63.224C224.456 62.28 225.144 61.88 226.808 61.88C228.824 61.88 229.448 62.52 229.448 63.704V63.784H230.584V63.752C230.584 61.896 229.112 60.936 226.84 60.936C224.664 60.936 223.336 61.816 223.336 63.208C223.336 64.52 224.248 65.08 225.688 65.272L227.8 65.576C229.112 65.784 229.608 66.056 229.608 66.888C229.608 67.8 229 68.216 227.224 68.216C225.288 68.216 224.504 67.752 224.504 66.424V66.328H223.368V66.36C223.368 68.184 224.776 69.16 227.208 69.16ZM233.277 60.088V58.28H232.141V60.088H233.277ZM233.277 69V61.096H232.141V69H233.277ZM238.979 69.16C241.571 69.16 243.283 67.448 243.283 65.048C243.283 62.648 241.571 60.936 238.979 60.936C236.403 60.936 234.691 62.648 234.691 65.048C234.691 67.448 236.403 69.16 238.979 69.16ZM238.979 68.136C236.803 68.136 235.811 66.968 235.811 65.048C235.811 63.144 236.803 61.96 238.979 61.96C241.155 61.96 242.163 63.144 242.163 65.048C242.163 66.968 241.155 68.136 238.979 68.136ZM245.851 69V65.176C245.851 63.144 246.859 61.976 248.779 61.976C250.587 61.976 251.371 62.92 251.371 64.552V69H252.507V64.392C252.507 62.52 251.403 60.936 249.179 60.936C247.211 60.936 246.091 62.232 245.819 63.576H245.739V61.096H244.715V69H245.851ZM255.204 69V66.776H253.796V69H255.204Z" fill="white"/>
<rect width="236" height="92" transform="matrix(-1 0 0 1 261.387 1)" stroke="black"/>
<path d="M1 25.3874C1 11.9186 11.9186 1 25.3874 1V36.2976H1V25.3874Z" fill="black" stroke="black"/>
<rect x="1" y="36.2979" width="24.3874" height="21.4048" fill="black" stroke="black"/>
<path d="M1 68.6126C1 82.0814 11.9186 93 25.3874 93V57.7024H1V68.6126Z" fill="black" stroke="black"/>
</svg>
