<svg width="120" height="39" viewBox="0 0 120 39" fill="none" xmlns="http://www.w3.org/2000/svg">
<path d="M119 12V1H108" stroke="#6F6F6F"/>
<path d="M119 27V38H108" stroke="#6F6F6F"/>
<path d="M1 12V1H12" stroke="#6F6F6F"/>
<path d="M1 27V38H12" stroke="#6F6F6F"/>
<path d="M30.169 24.11C32.501 24.11 34.019 22.614 34.019 20.315C34.019 18.016 32.501 16.52 30.169 16.52C27.859 16.52 26.33 18.016 26.33 20.315C26.33 22.614 27.859 24.11 30.169 24.11ZM30.169 22.966C28.42 22.966 27.584 22.152 27.584 20.315C27.584 18.478 28.42 17.653 30.169 17.653C31.918 17.653 32.765 18.478 32.765 20.315C32.765 22.152 31.918 22.966 30.169 22.966ZM36.0847 24V21.14H37.4377C38.3617 21.14 38.7027 21.382 39.0327 21.965L40.2097 24H41.5737L40.3417 21.866C40.0777 21.404 39.8137 21.074 39.2417 20.92V20.843C40.6277 20.766 41.4307 20.018 41.4307 18.797C41.4307 17.422 40.3967 16.63 38.7247 16.63H34.8967V24H36.0847ZM36.0847 17.697H38.7137C39.7037 17.697 40.1987 18.06 40.1987 18.962C40.1987 19.886 39.7037 20.227 38.7137 20.227H36.0847V17.697ZM45.7083 24C47.9963 24 49.4373 22.592 49.4373 20.315C49.4373 18.038 47.9963 16.63 45.7083 16.63H42.3533V24H45.7083ZM45.7083 17.697C47.4133 17.697 48.1833 18.423 48.1833 20.315C48.1833 22.207 47.4133 22.933 45.7083 22.933H43.5303V17.697H45.7083ZM56.2185 24V22.933H51.5105V20.821H56.0535V19.765H51.5105V17.697H56.2185V16.63H50.3225V24H56.2185ZM58.3318 24V21.14H59.6848C60.6088 21.14 60.9498 21.382 61.2798 21.965L62.4568 24H63.8208L62.5888 21.866C62.3248 21.404 62.0608 21.074 61.4888 20.92V20.843C62.8748 20.766 63.6778 20.018 63.6778 18.797C63.6778 17.422 62.6438 16.63 60.9718 16.63H57.1438V24H58.3318ZM58.3318 17.697H60.9608C61.9508 17.697 62.4458 18.06 62.4458 18.962C62.4458 19.886 61.9508 20.227 60.9608 20.227H58.3318V17.697ZM67.6023 24V19.677L67.5583 18.401H67.6463L68.5703 19.699L71.8923 24H73.1683V16.63H71.9803V20.986L72.0353 22.317H71.9473L70.9903 20.942L67.6903 16.63H66.4143V24H67.6023ZM77.8858 24.11C80.2178 24.11 81.7358 22.614 81.7358 20.315C81.7358 18.016 80.2178 16.52 77.8858 16.52C75.5758 16.52 74.0468 18.016 74.0468 20.315C74.0468 22.614 75.5758 24.11 77.8858 24.11ZM77.8858 22.966C76.1368 22.966 75.3008 22.152 75.3008 20.315C75.3008 18.478 76.1368 17.653 77.8858 17.653C79.6348 17.653 80.4818 18.478 80.4818 20.315C80.4818 22.152 79.6348 22.966 77.8858 22.966ZM85.9135 24L87.3105 19.71L87.8385 17.818H87.9375L88.4765 19.71L89.9615 24H91.7105L93.5585 16.63H92.2605L91.1605 21.294L90.8525 22.856H90.7645L90.3465 21.294L88.7625 16.63H87.0355L85.5505 21.294L85.1545 22.856H85.0665L84.7365 21.294L83.5375 16.63H82.2175L84.1645 24H85.9135Z" fill="#8B8B8B"/>
</svg>
