<svg width="10" height="19" viewBox="0 0 10 19" fill="none" xmlns="http://www.w3.org/2000/svg">
<path d="M2.78422 10.7247C2.71462 10.7247 1.18329 10.7247 0.487239 10.7247C0.116009 10.7247 0 10.582 0 10.2253C0 9.27409 0 8.29912 0 7.34793C0 6.96746 0.139211 6.84856 0.487239 6.84856H2.78422C2.78422 6.77722 2.78422 5.398 2.78422 4.75594C2.78422 3.80476 2.94664 2.90113 3.41067 2.06884C3.89791 1.21277 4.59397 0.642052 5.47564 0.309136C6.05569 0.0951187 6.63573 0 7.26218 0H9.53596C9.86079 0 10 0.142678 10 0.475594V3.18648C10 3.5194 9.86079 3.66208 9.53596 3.66208C8.90951 3.66208 8.28306 3.66208 7.65661 3.68586C7.03016 3.68586 6.70534 3.99499 6.70534 4.66083C6.68214 5.37422 6.70534 6.06383 6.70534 6.801H9.39675C9.76798 6.801 9.90719 6.94368 9.90719 7.32416V10.2015C9.90719 10.582 9.79118 10.7009 9.39675 10.7009C8.56149 10.7009 6.77494 10.7009 6.70534 10.7009V18.4531C6.70534 18.8573 6.58933 19 6.17169 19C5.19722 19 4.24594 19 3.27146 19C2.92343 19 2.78422 18.8573 2.78422 18.5006C2.78422 16.0038 2.78422 10.796 2.78422 10.7247Z" fill="white"/>
</svg>
