<svg width="13" height="16" viewBox="0 0 13 16" fill="none" xmlns="http://www.w3.org/2000/svg">
<path d="M9.8738 6.97372C10.3718 6.71606 10.7484 6.42909 11.0064 6.11897C11.4654 5.56046 11.6919 4.81989 11.6919 3.90189C11.6919 3.00857 11.4654 2.24486 11.0124 1.60457C10.2563 0.561601 8.97673 0.0277714 7.16758 0H0V15.0475H6.68304C7.4361 15.0475 8.13366 14.9811 8.77871 14.8454C9.42377 14.7081 9.98181 14.4566 10.4543 14.0894C10.8744 13.77 11.2254 13.3735 11.5044 12.906C11.9455 12.1994 12.166 11.3986 12.166 10.5069C12.166 9.64286 11.9725 8.90692 11.5884 8.30212C11.1999 7.69732 10.6299 7.25452 9.8738 6.97372ZM2.95674 2.6136H6.185C6.89456 2.6136 7.47961 2.69229 7.93864 2.84812C8.46969 3.07492 8.73521 3.53623 8.73521 4.23977C8.73521 4.8708 8.53269 5.31206 8.13216 5.56046C7.72863 5.80886 7.20509 5.93383 6.56303 5.93383H2.95674V2.6136ZM8.06166 12.1716C7.70463 12.349 7.20209 12.437 6.55853 12.437H2.95674V8.424H6.60804C7.24409 8.42863 7.73913 8.51503 8.09316 8.67703C8.72321 8.97017 9.03673 9.50709 9.03673 10.2924C9.03673 11.2181 8.71271 11.8414 8.06166 12.1716Z" fill="white"/>
</svg>
