<svg width="18" height="18" viewBox="0 0 18 18" fill="none" xmlns="http://www.w3.org/2000/svg">
<path d="M9.03774 0C4.09761 0 0.0772258 4.0014 0.0754839 8.919C0.0743226 10.4916 0.487742 12.0264 1.27161 13.3782L0 18L4.75142 16.7598C6.07309 17.4742 7.54268 17.8469 9.03426 17.8458H9.03774C13.9779 17.8458 17.9983 13.8438 18 8.9262C18.0012 6.5442 17.0698 4.302 15.3772 2.6166C13.6852 0.9306 11.4352 0.0006 9.03774 0ZM9.03774 16.3392H9.03484C7.69819 16.3392 6.3871 15.9816 5.24323 15.306L4.97032 15.1452L2.15187 15.8808L2.90439 13.1448L2.72729 12.8646C1.98343 11.6923 1.58745 10.3208 1.58806 8.919C1.58981 4.8312 4.932 1.5066 9.04064 1.5066C11.0299 1.5072 12.9002 2.2794 14.3071 3.6804C15.714 5.0814 16.488 6.9444 16.4868 8.9256C16.4851 13.0134 13.1435 16.3392 9.03716 16.3392H9.03774ZM13.1237 10.7862C12.8996 10.6752 11.7987 10.1358 11.5932 10.0608C11.3882 9.987 11.239 9.9486 11.0897 10.1718C10.9411 10.395 10.5114 10.8972 10.3814 11.0454C10.2501 11.1942 10.1195 11.2122 9.89535 11.1012C9.67123 10.9896 8.94948 10.7544 8.09477 9.9948C7.42877 9.4044 6.97935 8.6748 6.84871 8.451C6.71806 8.2284 6.83477 8.1078 6.94684 7.9968C7.04729 7.8978 7.17097 7.737 7.28245 7.6068C7.39394 7.4766 7.4311 7.3836 7.50658 7.2348C7.5809 7.0866 7.54374 6.9558 7.48742 6.8448C7.4311 6.7326 6.984 5.6358 6.79645 5.19C6.61529 4.7556 6.43065 4.8138 6.29303 4.8066C6.16239 4.8006 6.01374 4.7988 5.86335 4.7988C5.71529 4.7988 5.472 4.8546 5.26645 5.0778C5.06148 5.301 4.48258 5.8398 4.48258 6.9366C4.48258 8.034 5.28503 9.0936 5.3971 9.2424C5.50916 9.3906 6.97645 11.6424 9.22297 12.6084C9.75716 12.837 10.1741 12.9744 10.4998 13.0776C11.0363 13.2474 11.5246 13.2228 11.9102 13.1658C12.3399 13.1016 13.2352 12.627 13.421 12.1068C13.608 11.5866 13.608 11.1402 13.5523 11.0472C13.4977 10.9542 13.3479 10.8984 13.1237 10.7862V10.7862Z" fill="white"/>
</svg>
