<svg width="120" height="65" viewBox="0 0 120 65" fill="none" xmlns="http://www.w3.org/2000/svg">
<path d="M119.4 11.8668V1.4668H109" stroke="#6F6F6F"/>
<path d="M119.4 53.4672V63.8672H109" stroke="#6F6F6F"/>
<path d="M1 11.8668V1.4668H11.4" stroke="#6F6F6F"/>
<path d="M1 53.4672V63.8672H11.4" stroke="#6F6F6F"/>
<path d="M33.32 36.4668L34.167 34.5528H38.061L38.908 36.4668H40.25L36.961 29.0968H35.289L32 36.4668H33.32ZM35.641 31.2418L36.07 30.1968H36.158L36.587 31.2418L37.588 33.4858H34.64L35.641 31.2418ZM45.024 36.4668C46.542 36.4668 47.389 35.6968 47.389 34.4318C47.389 33.4638 46.773 32.7818 45.519 32.6388V32.5618C46.641 32.4298 47.125 31.7808 47.125 30.9118C47.125 29.7458 46.278 29.0968 44.87 29.0968H40.745V36.4668H45.024ZM41.922 30.1638H44.738C45.563 30.1638 45.948 30.4828 45.948 31.1758C45.948 31.8688 45.53 32.1878 44.705 32.1878H41.922V30.1638ZM41.922 33.1668H44.892C45.761 33.1668 46.201 33.4968 46.201 34.2668C46.201 35.0698 45.772 35.3998 44.892 35.3998H41.922V33.1668ZM51.7774 36.5768C54.1094 36.5768 55.6274 35.0808 55.6274 32.7818C55.6274 30.4828 54.1094 28.9868 51.7774 28.9868C49.4674 28.9868 47.9384 30.4828 47.9384 32.7818C47.9384 35.0808 49.4674 36.5768 51.7774 36.5768ZM51.7774 35.4328C50.0284 35.4328 49.1924 34.6188 49.1924 32.7818C49.1924 30.9448 50.0284 30.1198 51.7774 30.1198C53.5264 30.1198 54.3734 30.9448 54.3734 32.7818C54.3734 34.6188 53.5264 35.4328 51.7774 35.4328ZM59.9151 36.5768C62.1261 36.5768 63.3801 35.4108 63.3801 33.4088V29.0968H62.1921V33.3318C62.1921 34.8168 61.5321 35.4328 59.9151 35.4328C58.2981 35.4328 57.6381 34.8168 57.6381 33.3318V29.0968H56.4611V33.4088C56.4611 35.4108 57.7151 36.5768 59.9151 36.5768ZM68.0958 36.4668V30.1638H70.9888V29.0968H64.0148V30.1638H66.9188V36.4668H68.0958ZM76.9737 36.5768C79.1847 36.5768 80.4387 35.4108 80.4387 33.4088V29.0968H79.2507V33.3318C79.2507 34.8168 78.5907 35.4328 76.9737 35.4328C75.3567 35.4328 74.6967 34.8168 74.6967 33.3318V29.0968H73.5197V33.4088C73.5197 35.4108 74.7737 36.5768 76.9737 36.5768ZM84.5824 36.5768C86.7604 36.5768 87.6734 35.5428 87.6734 34.4208C87.6734 33.3428 86.9474 32.6718 85.4734 32.4078L83.6804 32.0998C82.8114 31.9128 82.4374 31.7038 82.4374 31.0658C82.4374 30.4058 82.9654 30.0758 84.3074 30.0758C85.8364 30.0758 86.3754 30.5268 86.3754 31.4288V31.5718H87.5524V31.5058C87.5524 30.0648 86.5734 28.9868 84.4174 28.9868C82.1294 28.9868 81.2494 30.0648 81.2494 31.1318C81.2494 32.3418 82.1294 32.9138 83.3724 33.1338L85.1764 33.4308C86.1114 33.6068 86.4854 33.8488 86.4854 34.4868C86.4854 35.1798 85.9904 35.4878 84.5824 35.4878C82.9654 35.4878 82.4484 35.0478 82.4484 34.1678V33.9918H81.2604V34.0578C81.2604 35.6088 82.3824 36.5768 84.5824 36.5768Z" fill="#8B8B8B"/>
</svg>
