<svg width="57" height="69" viewBox="0 0 57 69" fill="none" xmlns="http://www.w3.org/2000/svg">
<path fill-rule="evenodd" clip-rule="evenodd" d="M54.0908 54.0088H54.1728V54.2546H1.967C1.967 36.8254 1.967 19.3962 1.967 1.96676H54.009V2.13057H54.0911V2.2126H54.1731V2.37642H54.0911V54.0085L54.0908 54.0088ZM55.9758 0H0C0 18.7405 0 37.4812 0 56.2216H0.163816V56.3037H0.245844V56.3857H55.7299V56.3037H55.9758V0Z" fill="black"/>
<path fill-rule="evenodd" clip-rule="evenodd" d="M40.1234 43.9674C40.3161 44.5909 39.1775 44.4406 38.7198 44.4495C38.1961 44.4598 35.4367 44.5849 35.1338 44.4228C34.71 44.1957 32.5017 40.2766 32.0829 39.5723C31.736 38.989 30.2307 36.8925 30.4837 36.3099C30.7303 35.7422 33.2955 35.3636 33.9041 35.3145C34.9513 35.2301 35.2681 36.0901 35.7699 36.9585C37.0787 39.2242 38.5944 41.3687 39.9204 43.6218L40.1239 43.9674H40.1234ZM22.6732 27.6176C22.8929 27.7578 24.8392 31.1099 25.0982 31.548C25.831 32.788 26.0188 33.4462 24.3432 33.819C22.0052 34.3388 22.4356 31.6196 22.4613 30.083C22.4673 29.7171 22.4368 27.8216 22.6735 27.6176H22.6732ZM24.5784 11.7827C26.0631 12.0009 27.1417 12.8761 28.2567 13.8277C31.2874 16.4148 32.553 20.4065 31.9759 24.297C31.6093 26.7682 30.6596 29.574 28.7597 31.2961C27.3282 32.5936 26.8242 30.75 26.161 29.542C25.8594 28.9926 22.7348 23.9686 22.6598 23.5229C22.4377 22.2037 22.4803 19.21 22.4671 17.7889C22.4608 17.1172 22.3218 12.2403 22.6812 11.9001C23.0163 11.5831 24.1334 11.7486 24.5784 11.7827ZM14.6787 44.3222C14.5204 43.311 14.6804 40.7801 14.6896 39.5697C14.7434 32.3158 14.8914 24.8498 14.7006 17.6133C14.6888 17.1663 14.4411 14.6198 14.7081 14.4339C15.1702 14.6201 17.122 18.1785 17.5776 18.9464C18.2151 20.02 18.7789 20.9976 19.4479 22.0666C21.0206 24.5799 20.6002 26.2159 20.5956 29.0643C20.5929 30.8333 20.7034 43.7543 20.5364 44.3381C20.4315 44.705 20.07 44.5188 19.6182 44.4923C19.046 44.4589 14.8457 44.4974 14.8033 44.4803L14.679 44.3222H14.6787ZM30.3971 32.3651C32.6691 30.0402 33.6749 27.2012 34.0552 24.017C34.2327 22.5299 34.0809 20.9346 33.7439 19.4835C33.3997 18.001 33.1291 17.0003 32.2792 15.6701C31.5316 14.4998 30.8453 13.8729 30 12.8513C28.9897 11.6302 30.2879 11.7192 31.2872 11.7873C35.1331 12.0498 38.9473 15.6196 39.6683 19.377C40.4652 23.5301 39.452 29.554 35.7756 32.1508C34.3177 33.1806 31.7519 34.0764 29.9687 33.876C28.6786 33.7312 29.8958 32.8631 30.3971 32.3649V32.3651ZM43.6951 46.0006C42.7074 44.5777 41.756 42.8746 40.8164 41.3825C40.3358 40.6192 36.5772 34.6706 36.5257 34.3761C36.4504 33.946 37.4516 33.3502 37.8057 33.0367C39.1975 31.8049 39.9584 30.4419 40.7469 28.784C41.6569 26.8707 42.1229 22.9999 41.9388 20.8345C41.5152 15.8486 38.0246 11.5116 33.2287 10.0255C31.9631 9.63341 26.6034 9.76788 24.939 9.77871C24.3251 9.7828 21.0156 9.72122 20.6947 9.93362C20.3553 10.1581 20.5496 12.0483 20.5588 12.4856C20.5706 13.0456 20.7224 19.9601 20.2901 19.7291C20.0851 19.6195 15.5134 11.1229 14.532 10.1672C13.8219 9.47561 12.8205 9.54225 12.6473 10.7491C12.4671 12.0031 12.5835 14.8996 12.591 16.2866C12.642 25.7786 12.5563 35.2698 12.602 44.7576C12.6136 47.1706 12.7745 46.5587 15.3862 46.5656C16.5105 46.5685 21.3148 46.6982 22.0331 46.5425C22.8544 46.3643 22.5616 43.4094 22.5436 42.7103C22.5106 41.4265 22.2631 37.5307 22.7752 36.5606C23.3809 35.4127 25.874 35.6547 26.9101 35.9376C28.3512 36.3311 28.809 37.8276 29.5093 39.0739C30.5547 40.9343 31.6927 42.7454 32.7793 44.5804C34.0148 46.6664 33.3747 46.5536 36.2531 46.5683C37.0003 46.5721 43.38 46.5296 43.59 46.4316C43.7798 46.3431 43.7745 46.1709 43.6949 46.0008L43.6951 46.0006Z" fill="black"/>
<path d="M5.77806 62.7102V68.8849H4.96644V64.0597L2.94628 67.4205H2.84044L0.820283 64.0684V68.8847H0V62.71H0.926126L2.89336 65.9738L4.8517 62.71H5.77782L5.77806 62.7102ZM7.50691 68.9821C7.34815 68.9821 7.21296 68.9263 7.1011 68.8145C6.98949 68.7028 6.93344 68.5674 6.93344 68.4087C6.93344 68.2499 6.98925 68.1147 7.1011 68.0028C7.21296 67.8912 7.34815 67.8352 7.50691 67.8352C7.67169 67.8352 7.80833 67.891 7.91706 68.0028C8.02578 68.1145 8.08015 68.2499 8.08015 68.4087C8.08015 68.5674 8.02578 68.7026 7.91706 68.8145C7.80833 68.9261 7.67145 68.9821 7.50691 68.9821ZM12.9054 68.8852L11.5205 66.521H10.0649V68.8852H9.24466V62.7104H11.7147C12.2439 62.7104 12.6968 62.8971 13.0731 63.2707C13.4495 63.644 13.6376 64.0955 13.6376 64.6248C13.6376 65.0246 13.5186 65.3892 13.2804 65.7186C13.0423 66.0479 12.7348 66.2802 12.3586 66.4154L13.8142 68.8854H12.9056L12.9054 68.8852ZM10.0649 63.4778V65.7801H11.7144C12.0202 65.7801 12.2804 65.6668 12.495 65.4405C12.7096 65.2141 12.8171 64.9421 12.8171 64.6245C12.8171 64.307 12.7098 64.0364 12.495 63.8129C12.2804 63.5894 12.0202 63.4776 11.7144 63.4776H10.0649V63.4778ZM19.7462 68.0649C19.1258 68.6882 18.3686 68.9999 17.4747 68.9999C16.5808 68.9999 15.8252 68.6882 15.2077 68.0649C14.5902 67.4416 14.2816 66.6858 14.2816 65.7979C14.2816 64.904 14.5902 64.1468 15.2077 63.5264C15.8252 62.906 16.5808 62.5957 17.4747 62.5957C18.3686 62.5957 19.1258 62.906 19.7462 63.5264C20.3666 64.1468 20.6769 64.904 20.6769 65.7979C20.6769 66.6858 20.3666 67.4416 19.7462 68.0649ZM15.7766 67.5047C16.2325 67.9663 16.7985 68.1972 17.4747 68.1972C18.1509 68.1972 18.7169 67.9663 19.1727 67.5047C19.6286 67.043 19.8564 66.4741 19.8564 65.7977C19.8564 65.1155 19.6286 64.5437 19.1727 64.0821C18.7169 63.6205 18.1509 63.3895 17.4747 63.3895C16.7985 63.3895 16.2325 63.6205 15.7766 64.0821C15.3208 64.5437 15.093 65.1157 15.093 65.7977C15.093 66.4739 15.3208 67.043 15.7766 67.5047ZM23.4377 68.9999C22.8614 68.9999 22.369 68.8647 21.9603 68.5941C21.5516 68.3235 21.2648 67.953 21.1003 67.4828L21.8061 67.077C22.0471 67.8239 22.597 68.1972 23.4555 68.1972C23.8789 68.1972 24.2024 68.1104 24.4259 67.9369C24.6494 67.7635 24.761 67.5326 24.761 67.2444C24.761 66.9504 24.6494 66.7298 24.4259 66.5829C24.2024 66.4359 23.8291 66.28 23.3057 66.1152C23.0468 66.033 22.8498 65.9668 22.7146 65.9168C22.5794 65.8667 22.4103 65.7902 22.2073 65.6875C22.0045 65.5846 21.853 65.4787 21.7531 65.37C21.6531 65.2613 21.5636 65.1186 21.4842 64.9423C21.4048 64.766 21.3651 64.5658 21.3651 64.3424C21.3651 63.8071 21.5532 63.3823 21.9297 63.0677C22.3062 62.753 22.7647 62.5957 23.3059 62.5957C23.794 62.5957 24.2188 62.7191 24.5806 62.9662C24.9421 63.2132 25.2142 63.5396 25.3965 63.9452L24.7086 64.3421C24.444 63.7071 23.9763 63.3895 23.3059 63.3895C22.9708 63.3895 22.7002 63.4718 22.4943 63.6366C22.2884 63.8014 22.1857 64.0248 22.1857 64.307C22.1857 64.5776 22.2826 64.7833 22.4767 64.9245C22.6708 65.0657 23.0059 65.2127 23.4822 65.3657C23.6528 65.4186 23.7733 65.4568 23.8438 65.4804C23.9143 65.504 24.0247 65.5451 24.1745 65.6038C24.3244 65.6627 24.4348 65.7097 24.5053 65.745C24.5758 65.7804 24.6715 65.8302 24.792 65.8949C24.9126 65.9596 25.0023 66.0214 25.061 66.0801C25.1197 66.1388 25.1889 66.211 25.2683 66.2961C25.3477 66.3813 25.405 66.4681 25.4403 66.5564C25.4757 66.6447 25.5065 66.746 25.5329 66.8607C25.5594 66.9754 25.5726 67.0974 25.5726 67.2268C25.5726 67.7678 25.3756 68.1986 24.9816 68.5191C24.5876 68.8395 24.073 68.9999 23.438 68.9999H23.4377ZM27.319 68.1089H30.1859V68.8852H26.4988V62.7104H30.1419V63.4867H27.319V65.3832H29.9213V66.1506H27.319V68.1089ZM35.0112 62.7104H35.8315V68.8852H35.1699L31.9944 64.2716V68.8852H31.1741V62.7104H31.8356L35.0112 67.3151V62.7104ZM40.7096 63.4867H37.975V65.4891H40.5949V66.2653H37.975V68.8852H37.1547V62.7104H40.7096V63.4867ZM42.5267 68.1089H45.3937V68.8852H41.7065V62.7104H45.3496V63.4867H42.5267V65.3832H45.129V66.1506H42.5267V68.1089ZM47.2019 68.1089H49.8658V68.8852H46.3814V62.7104H47.2016V68.1089H47.2019ZM53.0944 62.7104C53.9354 62.7104 54.6337 63.009 55.1894 63.6058C55.7451 64.2026 56.0229 64.9334 56.0229 65.7979C56.0229 66.6625 55.7451 67.393 55.1894 67.9901C54.6337 68.5869 53.9354 68.8854 53.0944 68.8854H50.6863V62.7107H53.0944V62.7104ZM53.0944 68.1089C53.7237 68.1089 54.2383 67.8883 54.6381 67.4474C55.0379 67.0062 55.238 66.4566 55.238 65.7979C55.238 65.1393 55.0381 64.5894 54.6381 64.1485C54.2383 63.7073 53.7235 63.487 53.0944 63.487H51.5066V68.1092H53.0944V68.1089Z" fill="black"/>
</svg>
