<svg width="123" height="25" viewBox="0 0 123 25" fill="none" xmlns="http://www.w3.org/2000/svg">
<path d="M85.8064 5.73254V0.43543C92.5912 0.331421 92.8658 0.239924 95.109 0.298732C98.5569 0.387257 100.636 1.38918 102.131 2.9293C103.573 4.41373 104.716 6.67753 104.663 9.96328C104.631 11.8551 103.483 18.8148 95.165 19.2492C94.1896 19.3377 91.9502 19.2596 90.5279 19.2934L91.9341 13.8587C95.2294 14.138 97.8439 13.0803 97.9831 9.90728C98.1355 6.34517 95.0316 5.21421 91.935 5.77195L85.8064 5.73254Z" fill="black"/>
<path d="M91.9312 24.416L85.8064 24.4151V4.60352L91.9312 4.64387V24.416Z" fill="black"/>
<path d="M113.946 8.88138L118.974 10.7029C122.32 12.0467 123.031 14.7736 122.999 17.1222C122.925 22.5694 118.652 24.6116 115.246 24.9064C111.374 25.2408 108.376 24.5809 107.368 24.4144V18.4863C110.433 19.4334 114 19.3957 115.205 18.918C116.116 18.5567 116.808 18.0048 116.753 17.2803C116.723 16.8873 116.684 16.3874 115.532 15.8866L110.896 14.1758C107.919 13.0854 106.771 10.21 106.895 7.64876C107.147 2.47396 111.211 -0.14519 115.268 0.00620943C116.52 0.0523487 118.207 0.0224755 120.659 0.367504V6.24049C117.911 5.59032 116.623 5.60095 115.205 5.78019C113.619 5.97945 112.907 6.81371 112.94 7.70491C112.956 8.1566 113.399 8.65178 113.947 8.8734" fill="black"/>
<path d="M27.9712 9.37176H34.5666L34.5648 0.457642H40.6905V24.4201H34.5666V14.7999H27.9712L27.9703 24.4201H21.8381V0.457642H27.9703L27.9712 9.37176Z" fill="black"/>
<path d="M52.5894 0.457642H46.46V24.4201H52.5894V0.457642Z" fill="black"/>
<path d="M79.9784 0.457642H73.8479V24.4201H79.9784V0.457642Z" fill="black"/>
<path d="M64.4883 18.9795H70.8082V24.4182L58.3569 24.4201V0.457642H64.4883V18.9795Z" fill="black"/>
<path d="M0 5.73254V0.43543C6.7856 0.331421 7.05943 0.239924 9.30357 0.298732C12.7503 0.387257 14.8298 1.38918 16.3259 2.9293C17.7661 4.41373 18.9102 6.67753 18.8571 9.96328C18.8248 11.8551 17.6762 18.8148 9.35845 19.2492C8.38414 19.3377 6.21458 19.2596 4.79239 19.2934L6.13124 13.8587C9.42749 14.138 12.0402 13.0803 12.1764 9.90728C12.3288 6.34517 9.22392 5.21421 6.12848 5.77195L0 5.73254Z" fill="black"/>
<path d="M6.13416 24.4161L0 24.4152V5.01477L6.12847 5.05434L6.13416 24.4161Z" fill="black"/>
</svg>
