<svg width="96" height="37" viewBox="0 0 96 37" fill="none" xmlns="http://www.w3.org/2000/svg">
<path fill-rule="evenodd" clip-rule="evenodd" d="M20.0622 28.3134C21.0483 28.3134 22.5179 26.9928 22.8811 26.3513C24.0755 24.2421 25.1178 22.2679 26.0757 19.9838C26.5317 18.8965 27.2758 17.9182 27.562 16.6889C28.0778 16.8267 27.7489 19.1099 27.7494 20.064C27.7531 27.5276 27.0786 28.2202 32.0619 28.2202V9.93921C32.0619 9.67574 31.8745 9.79309 31.8745 9.09544C32.8718 8.73455 33.5593 7.8532 34.9444 8.55643C36.0433 9.11446 35.6922 10.4634 35.7112 12.0081C35.7385 14.2425 37.7058 16.2659 39.8428 16.3137V16.1263C40.0516 16.0706 40.1239 16.1045 40.1239 15.8452C40.1239 12.4575 40.5655 7.9701 35.4366 7.9701C32.645 7.9701 32.1134 7.70059 30.6504 10.0278C29.5872 11.7191 26.0655 19.5181 25.8739 19.5951C25.8739 17.2827 25.8739 14.9703 25.8739 12.6575C25.8739 11.6365 26.0558 10.0728 25.6954 9.36726C24.8632 7.73724 23.5031 7.9701 21.9362 7.9701C21.3972 7.9701 21.6551 9.69197 21.6551 10.4077V24.9388C21.6551 26.1235 21.894 26.8731 21.1745 27.3644C20.6819 27.7002 19.711 28.1539 18.8436 27.7508C17.4724 27.1139 17.8119 24.9541 17.8119 22.9702V11.3452C17.8119 10.115 17.9632 9.63213 17.3815 8.86954C16.5358 7.76136 15.1238 7.9701 13.6868 7.9701C13.6868 12.4074 13.6868 16.8453 13.6868 21.2826C13.6868 23.916 13.3746 25.4908 14.7156 26.9098C15.9732 28.2406 17.541 28.3139 20.0617 28.3139L20.0622 28.3134Z" fill="black"/>
<path fill-rule="evenodd" clip-rule="evenodd" d="M3.59358 9.09079C4.34782 8.88484 7.47707 7.26501 7.50815 10.1173L7.50722 25.976C7.51232 26.8291 6.92414 27.844 6.18752 27.844H4.87524C4.66511 27.844 3.75036 27.4942 3.75036 27.1876L3.84917 11.3327L3.59358 9.09033V9.09079ZM3.41406 36.2817H1.9385C1.13786 36.2177 0 35.7859 0 34.9695V7.96963C0.760741 7.96963 2.68718 7.85088 2.99983 8.626H3.37463C3.46137 8.41169 4.89008 7.78223 5.24958 7.78223C6.7038 7.78223 8.77265 7.83743 9.96246 8.69419C10.7084 9.23135 11.4255 10.0306 11.6217 11.0664C12.0466 13.3083 11.8119 16.3832 11.8119 18.9387C11.8119 21.31 12.1296 24.9388 11.13 26.3193C9.75976 28.2114 8.28466 28.3134 5.15541 28.3134C4.80334 28.3134 4.50693 28.2837 4.40534 28.0323H3.84267L3.84406 34.8776C3.8538 35.7914 3.80185 36.1588 3.41267 36.2822L3.41406 36.2817Z" fill="black"/>
<path fill-rule="evenodd" clip-rule="evenodd" d="M49.3122 19.5946C48.8266 19.6053 49.0975 19.8493 47.2425 19.7894C46.4367 19.7634 46.054 19.5208 46.1023 18.8441C46.2465 16.817 45.9246 11.0771 46.2359 9.76896C46.3787 9.16918 46.6566 8.69882 47.1654 8.4488C48.1813 7.94875 48.3752 8.43906 49.1244 8.43906C49.1772 8.92055 49.8744 9.0778 49.8744 10.314V18.0954C49.8744 18.614 49.3563 19.191 49.3118 19.5955L49.3122 19.5946ZM48.0936 28.3134C50.7071 28.3134 52.3306 28.0764 53.3585 26.4533C53.9968 25.4449 54.097 25.2426 54.0938 23.6261C54.0914 22.4075 54.0938 21.1884 54.0938 19.9699C52.2963 19.9699 50.9191 21.0108 50.3411 22.2173C49.5052 23.9614 50.5113 25.7506 49.424 27.3003C48.6025 28.4711 46.0633 27.9437 46.0884 25.8076C46.1097 23.9591 46.0897 21.6444 46.125 20.0636C46.3091 20.161 46.4015 20.251 46.6877 20.251H50.5313C51.0656 20.251 52.4953 19.4619 52.7991 19.1437C53.3571 18.5583 53.9008 17.8361 54.0669 16.9427C54.348 15.4309 54.264 11.4556 53.7839 10.4365C53.0408 8.85932 51.7271 7.9455 49.4082 7.96823C47.254 7.98911 44.9797 7.68899 43.5468 8.76608C41.85 10.0422 41.9066 11.1652 41.9066 13.9697L41.9024 24.1929C41.889 25.4778 42.3032 25.9704 42.819 26.7451C43.743 28.1311 45.8212 28.3139 48.0941 28.3139L48.0936 28.3134Z" fill="black"/>
<path fill-rule="evenodd" clip-rule="evenodd" d="M91.5933 19.5946C90.6219 19.6164 91.2556 20.0265 89.5212 19.7922C88.393 19.6396 88.3156 19.3627 88.4264 18.7444C88.6486 17.5091 88.5016 12.7818 88.4997 10.8758C88.4983 9.65304 88.3439 9.30607 89.0684 8.72577C90.3775 7.67743 92.1559 8.56574 92.1559 10.1257V18.2819C92.1559 18.5059 91.6294 19.2662 91.5933 19.5942V19.5946ZM85.5931 8.81344C85.5361 9.33529 84.2099 10.0728 84.1797 11.8063C84.1436 13.8891 84.0731 24.2913 84.2322 24.9871C84.4891 26.1115 85.1618 27.0119 86.0514 27.5741C87.1494 28.268 88.0762 28.2059 89.8157 28.2161C91.1377 28.2239 92.5818 28.3455 93.7734 27.9623C94.4929 27.7309 95.9995 26.4956 95.9995 25.6884V19.9699C94.4627 19.9699 93.0452 21.1189 92.4523 22.6102C91.8178 24.2064 92.6221 26.4 91.5933 27.4697C91.2648 27.8116 89.9261 28.1103 89.286 27.7146C87.7028 26.7359 88.3123 22.3644 88.3123 19.9699C88.7391 19.9796 89.9169 20.4389 90.3747 20.4389C90.8817 20.4389 91.359 20.2431 92.2538 20.2552C93.0758 20.2663 93.4047 20.0789 93.9915 19.8363C94.8009 19.5019 96 18.5778 96 17.5323V10.6884C96 9.86132 95.0407 8.96837 94.5611 8.65851C93.7498 8.13388 92.9895 7.96085 91.6897 7.96735C90.0101 7.97523 88.2775 7.74562 86.8312 8.26979C86.5153 8.38436 85.8645 8.78375 85.5936 8.81344H85.5931Z" fill="black"/>
<path fill-rule="evenodd" clip-rule="evenodd" d="M70.2185 16.3132C71.9348 16.2752 73.4052 14.9819 73.9452 13.665C74.3863 12.5893 74.3474 12.3305 74.3432 10.8758C74.3371 8.53743 75.013 9.17246 75.0932 8.43862C75.9356 8.43862 76.2937 8.13154 76.9617 8.44326C77.4177 8.65618 77.9994 9.09592 77.9994 9.75137V18.4702C77.9994 19.8855 76.201 19.9755 74.718 19.9699C72.9632 19.9634 71.9895 20.3957 71.1532 21.2798C69.7435 22.7702 69.1163 27.2127 71.5915 28.0653C72.5898 28.4095 74.8377 28.1186 76.2102 28.2346C78.6697 28.4419 80.1336 28.1525 81.5173 26.4872C82.7424 25.013 82.3124 21.8258 82.3124 19.9699C80.4221 19.9699 79.2875 20.9185 78.582 22.0522C77.8918 23.1618 77.9906 24.5515 78.004 25.8805C78.0124 26.6973 77.8212 26.7771 77.812 27.1886C77.2651 27.2484 77.3207 27.8449 76.6871 27.8449H75.5622C75.1452 27.8449 74.3436 26.9715 74.3436 26.5327V21.6579C74.3436 20.8624 75.2913 20.4031 75.9658 20.2802C76.7873 20.1304 78.1121 20.3823 78.9072 20.2213C80.4565 19.9077 81.6542 18.7666 82.0981 17.3189C82.5736 15.7677 82.3115 13.3157 82.3124 11.4394C82.3133 9.23786 81.8977 7.97058 79.6874 7.97058H74.8126C72.555 7.97058 71.155 8.79905 70.437 10.3451C70.0979 11.0757 69.9309 12.163 69.9369 13.2197C69.9439 14.4837 69.763 15.4528 70.2189 16.3142L70.2185 16.3132Z" fill="black"/>
<path fill-rule="evenodd" clip-rule="evenodd" d="M55.9684 6.37585H53.6245C53.2886 7.81708 53.7135 7.60509 55.2313 7.58144C56.2741 7.56474 55.9744 7.91496 55.9684 9.00041L55.9679 21.8444C55.9679 24.6443 55.4753 28.0579 58.1207 28.2226C59.6867 28.32 60.89 28.2917 61.6962 27.5727C62.6314 26.7387 62.3428 25.6143 62.3428 23.9068H60.2805V7.59443L62.5339 7.56149C62.7909 7.27668 62.7139 6.75065 62.7413 6.37724L60.2805 6.37538C60.2805 5.25051 60.2754 4.1247 60.2809 2.99983C60.2921 0.731518 59.3769 1.00056 59.4497 0.2375L56.9694 0H55.9767L55.9679 6.37492L55.9684 6.37585Z" fill="black"/>
<path fill-rule="evenodd" clip-rule="evenodd" d="M63.937 3.75078C63.937 4.55651 63.9235 5.41281 65.2075 6.04274C66.1905 6.52516 66.8246 5.99357 67.4995 5.81313C67.2351 6.94775 65.2084 7.95712 63.937 8.06334C63.937 9.70172 63.8257 25.5256 63.9555 26.3262C64.3146 28.5431 66.826 28.2197 68.1559 28.2197V10.5947C68.1559 9.06622 67.5714 8.00907 65.8119 7.96964C66.3343 7.63798 66.8352 7.46449 67.3209 7.04145C68.3247 6.16706 68.1554 4.75273 68.1554 3.56337C68.1554 3.37736 67.6048 2.62543 67.4568 2.48071C66.8097 1.84799 65.1365 1.90041 64.6054 2.54472C64.4598 2.72146 63.9365 3.5142 63.9365 3.75078H63.937Z" fill="black"/>
<path fill-rule="evenodd" clip-rule="evenodd" d="M27.6562 13.4071H28.1252C28.1252 12.7154 29.0483 11.2181 29.2988 10.6433C29.5827 9.99299 30.863 8.57124 30.9376 8.25071C30.5225 8.24143 30.1523 7.9696 29.3438 7.9696H28.1252C27.4285 7.9696 27.8321 12.6533 27.6562 13.4071Z" fill="black"/>
<path fill-rule="evenodd" clip-rule="evenodd" d="M25.875 28.2193C25.875 27.0392 25.9951 23.6066 25.7813 22.6881C25.3415 23.1942 24.219 26.3239 23.1034 27.33C22.7337 27.6631 22.4071 27.7804 23.0347 28.0425C23.6851 28.3139 24.9287 28.2193 25.875 28.2193Z" fill="black"/>
</svg>
