<svg width="126" height="38" viewBox="0 0 126 38" fill="none" xmlns="http://www.w3.org/2000/svg">
<path d="M78.1678 29.6942C70.8457 35.0912 60.2328 37.9706 51.0953 37.9706C38.2831 37.9706 26.7487 33.2319 18.0226 25.3503C17.337 24.7306 17.9513 23.8859 18.774 24.3686C28.1912 29.8478 39.8352 33.1441 51.8632 33.1441C59.975 33.1441 68.8986 31.4658 77.1037 27.983C78.3433 27.4565 79.3799 28.7947 78.1678 29.6942Z" fill="black"/>
<path d="M81.2119 26.2113C80.2795 25.0156 75.0252 25.6463 72.6668 25.9261C71.9483 26.0138 71.8386 25.3886 72.4858 24.9388C76.6706 21.9935 83.5374 22.8437 84.3382 23.8309C85.139 24.8236 84.1298 31.7069 80.1972 34.9923C79.5939 35.4969 79.018 35.2281 79.2868 34.559C80.1698 32.3541 82.1498 27.4124 81.2119 26.2113Z" fill="black"/>
<path d="M72.8313 4.14632V1.28331C72.8313 0.850015 73.1604 0.559326 73.5553 0.559326H86.373C86.7843 0.559326 87.1134 0.8555 87.1134 1.28331V3.73496C87.1079 4.14632 86.7624 4.68382 86.1481 5.53394L79.5061 15.017C81.9743 14.9567 84.5795 15.3241 86.8173 16.5856C87.3218 16.8708 87.459 17.2876 87.4974 17.699V20.754C87.4974 21.1708 87.0366 21.6589 86.554 21.4067C82.6105 19.3389 77.3726 19.1141 73.0123 21.4286C72.568 21.6699 72.1018 21.1873 72.1018 20.7704V17.869C72.1018 17.4028 72.1073 16.6075 72.5735 15.9L80.2685 4.86481H73.5717C73.1604 4.86481 72.8313 4.57413 72.8313 4.14632Z" fill="black"/>
<path d="M26.0742 22.01H22.1746C21.8016 21.9826 21.5055 21.7029 21.478 21.3464V1.33271C21.478 0.932332 21.8126 0.614217 22.2294 0.614217H25.8658C26.2442 0.63066 26.5459 0.921359 26.5733 1.28335V3.89955H26.6446C27.5935 1.3711 29.376 0.191895 31.7783 0.191895C34.219 0.191895 35.7437 1.3711 36.8407 3.89955C37.784 1.3711 39.9285 0.191895 42.2266 0.191895C43.8611 0.191895 45.6491 0.866512 46.7405 2.38029C47.9746 4.06409 47.7223 6.51026 47.7223 8.65478L47.7168 21.286C47.7168 21.6864 47.3823 22.01 46.9654 22.01H43.0713C42.6819 21.9826 42.3692 21.67 42.3692 21.286V10.6786C42.3692 9.83399 42.446 7.72787 42.2595 6.9271C41.9689 5.58335 41.0968 5.20491 39.9669 5.20491C39.0236 5.20491 38.0363 5.83565 37.6359 6.84483C37.2356 7.85402 37.274 9.5433 37.274 10.6786V21.286C37.274 21.6864 36.9394 22.01 36.5225 22.01H32.6284C32.2335 21.9826 31.9264 21.67 31.9264 21.286L31.9209 10.6786C31.9209 8.44636 32.2884 5.16103 29.5186 5.16103C26.7159 5.16103 26.8256 8.36409 26.8256 10.6786V21.286C26.8256 21.6864 26.491 22.01 26.0742 22.01Z" fill="black"/>
<path d="M98.1486 0.191895C103.935 0.191895 107.067 5.16103 107.067 11.4794C107.067 17.5839 103.606 22.4269 98.1486 22.4269C92.4664 22.4269 89.373 17.4577 89.373 11.2655C89.373 5.03488 92.5048 0.191895 98.1486 0.191895ZM98.1815 4.278C95.3075 4.278 95.1265 8.19407 95.1265 10.6348C95.1265 13.0809 95.0881 18.3024 98.1486 18.3024C101.171 18.3024 101.313 14.0901 101.313 11.5233C101.313 9.83399 101.242 7.81562 100.732 6.21409C100.293 4.82098 99.421 4.278 98.1815 4.278Z" fill="black"/>
<path d="M114.57 22.01H110.687C110.297 21.9826 109.984 21.67 109.984 21.286L109.979 1.26689C110.012 0.89942 110.336 0.614217 110.73 0.614217H114.345C114.685 0.63066 114.965 0.861029 115.041 1.17366V4.23412H115.113C116.204 1.49725 117.734 0.191895 120.427 0.191895C122.177 0.191895 123.883 0.822635 124.98 2.55031C126 4.15184 126 6.84483 126 8.78093V21.3793C125.956 21.7303 125.632 22.01 125.248 22.01H121.338C120.981 21.9826 120.685 21.7193 120.647 21.3793V10.5086C120.647 8.32022 120.899 5.11715 118.206 5.11715C117.257 5.11715 116.385 5.75338 115.952 6.71868C115.403 7.94177 115.332 9.15938 115.332 10.5086V21.286C115.327 21.6864 114.987 22.01 114.57 22.01Z" fill="black"/>
<path d="M62.6132 12.4503V11.6056C59.7941 11.6056 56.8159 12.2089 56.8159 15.5327C56.8159 17.2165 57.688 18.3573 59.1853 18.3573C60.2822 18.3573 61.264 17.6827 61.8838 16.5857C62.6516 15.2365 62.6132 13.9695 62.6132 12.4503ZM66.5458 21.9552C66.288 22.1856 65.915 22.2021 65.6243 22.0485C64.33 20.9735 64.0996 20.4744 63.3866 19.4487C61.2475 21.6316 59.7338 22.2843 56.9585 22.2843C53.6787 22.2843 51.1228 20.2605 51.1228 16.2073C51.1228 13.0426 52.8395 10.8871 55.2802 9.83406C57.3973 8.90166 60.3535 8.73712 62.6132 8.47934V7.97475C62.6132 7.04783 62.6845 5.95089 62.1416 5.15013C61.6644 4.43163 60.7539 4.13546 59.9532 4.13546C58.4668 4.13546 57.1395 4.89783 56.8159 6.47743C56.7501 6.82845 56.4923 7.17399 56.1413 7.19044L52.3569 6.78457C52.0387 6.71327 51.6877 6.45549 51.7755 5.96735C52.6475 1.38215 56.7885 0 60.4961 0C62.3939 0 64.8729 0.504592 66.3703 1.94158C68.268 3.71314 68.087 6.07704 68.087 8.64937V14.7264C68.087 16.5528 68.8439 17.3536 69.5569 18.3408C69.8092 18.6918 69.864 19.1142 69.5459 19.3774C68.7506 20.0411 67.3356 21.2751 66.5567 21.9662L66.5458 21.9552Z" fill="black"/>
<path d="M11.4904 12.4503V11.6056C8.6713 11.6056 5.69311 12.2089 5.69311 15.5327C5.69311 17.2165 6.56518 18.3573 8.0625 18.3573C9.15944 18.3573 10.1412 17.6827 10.761 16.5857C11.5288 15.2365 11.4904 13.9695 11.4904 12.4503ZM15.423 21.9552C15.1652 22.1856 14.7922 22.2021 14.5015 22.0485C13.2071 20.9735 12.9768 20.4744 12.2638 19.4487C10.1247 21.6316 8.61097 22.2843 5.83571 22.2843C2.55586 22.2843 0 20.2605 0 16.2073C0 13.0426 1.71671 10.8871 4.1574 9.83406C6.27449 8.90166 9.23074 8.73712 11.4904 8.47934V7.97475C11.4904 7.04783 11.5617 5.95089 11.0188 5.15013C10.5416 4.43163 9.63113 4.13546 8.83036 4.13546C7.34401 4.13546 6.01671 4.89783 5.69311 6.47743C5.6273 6.82845 5.36952 7.17399 5.0185 7.19044L1.23406 6.78457C0.915944 6.71327 0.564923 6.45549 0.652678 5.96735C1.52474 1.38215 5.66569 0 9.37335 0C11.271 0 13.7501 0.504592 15.2475 1.94158C17.1452 3.71314 16.9642 6.07704 16.9642 8.64937V14.7264C16.9642 16.5528 17.7211 17.3536 18.4341 18.3408C18.6864 18.6918 18.7412 19.1142 18.4231 19.3774C17.6278 20.0411 16.2128 21.2751 15.4339 21.9662L15.423 21.9552Z" fill="black"/>
</svg>
