<svg width="153" height="50" viewBox="0 0 153 50" fill="none" xmlns="http://www.w3.org/2000/svg">
<path fill-rule="evenodd" clip-rule="evenodd" d="M28.1796 16.9068C28.7867 17.3512 40.1458 38.6761 41.4493 40.934C41.7526 41.4595 42.107 41.9027 42.2697 42.6003H14.2557L28.1796 16.9068ZM0 49.5623H56.8566C56.7327 49.0314 56.3699 48.5405 56.0792 48.0193C55.7563 47.4396 55.4703 47.044 55.148 46.4644C54.5314 45.3563 53.9899 44.3572 53.3459 43.2938L39.0097 18.51C38.3985 17.3631 37.8492 16.5636 37.2439 15.4687C36.9103 14.8646 36.6797 14.4559 36.3592 13.8667L31.8804 6.07963C31.3269 5.15264 28.6395 0.336599 28.1802 0C27.6357 1.02826 27.1114 2.09406 26.4549 3.08182L8.7337 33.763C8.08314 34.8508 7.57914 35.8713 6.93275 36.9347L0.673198 47.7488C0.312173 48.3404 0.00059575 48.5965 0.00059575 49.5629L0 49.5623Z" fill="black"/>
<path fill-rule="evenodd" clip-rule="evenodd" d="M141.064 23.2057C142.659 23.2057 143.656 24.7571 144.475 26.0933C145.38 27.5684 145.871 28.664 146.055 30.82C146.375 34.553 144.387 37.9583 140.899 37.9583C139.509 37.9583 138.624 37.8904 137.36 37.1874C136.452 36.6828 136.107 36.1639 135.465 35.4359C132.425 31.9942 131.974 23.2057 141.065 23.2057H141.064ZM129.461 28.8415C129.461 31.0887 129.618 31.8125 130.566 33.704C132.313 37.1922 136.14 39.7819 140.07 39.7819C142.849 39.7819 145.512 39.3678 147.487 37.5854C149.588 35.6897 150.348 34.5554 150.348 31.3282C150.348 26.48 144.667 23.7628 144.38 23.3713H153V19.8904H140.899C136.05 19.8904 132.695 21.0217 130.567 24.8089C130.043 25.7406 129.461 27.4546 129.461 28.8415H129.461Z" fill="black"/>
<path fill-rule="evenodd" clip-rule="evenodd" d="M78.7375 23.04C79.3803 24.3799 79.0729 32.7388 79.0688 35.4721C79.0664 37.1271 78.7751 38.2632 80.4384 38.3812C82.3627 38.5176 82.0576 36.6422 82.0535 35.8046C82.0392 33.026 81.8366 24.6807 82.2185 23.04C85.9098 23.04 86.9821 23.0269 89.0786 24.9649L89.2501 25.1246C91.7148 27.5826 91.5396 31.4919 88.4709 34.0995C87.8823 34.6 86.8379 35.1236 86.011 35.2863C84.5443 35.5746 83.7103 35.5609 83.7103 37.1295C83.7103 39.3928 88.2386 37.8772 89.1119 37.3928C93.0975 35.182 93.9875 32.7222 93.9875 28.344C93.9875 23.8348 89.3443 20.0559 84.0415 20.0559H76.9139C75.9911 20.0559 75.6533 21.4714 75.8708 22.1029C76.2473 23.1967 77.3506 23.0394 78.7375 23.0394V23.04Z" fill="black"/>
<path fill-rule="evenodd" clip-rule="evenodd" d="M94.4851 21.8796C94.4851 23.7842 97.0415 23.3714 98.1317 23.3714C97.8362 24.6403 96.5982 24.7517 96.046 27.7501C95.3466 31.5468 96.8097 34.7162 99.6944 36.8931C103.289 39.6055 108.619 39.067 111.852 36.0972C113.627 34.4678 116.559 28.6759 113.05 28.6759C111.292 28.6759 112.139 31.1834 110.473 33.3925C108.327 36.239 104.192 36.6012 101.015 34.2474C98.616 32.4702 98.1776 28.1368 100.331 25.5715C103.858 21.3702 111.061 25.0418 111.061 22.0458C111.061 20.75 110.046 20.3884 108.741 20.3884H96.1431C95.29 20.3884 94.4857 21.0283 94.4857 21.8802L94.4851 21.8796Z" fill="black"/>
<path fill-rule="evenodd" clip-rule="evenodd" d="M63.4874 14.7521V29.8365C63.4874 30.9833 63.821 32.2582 64.2333 33.069C64.7516 34.0889 65.1466 34.7002 65.9288 35.5175C68.6943 38.4057 73.9303 39.4149 73.9303 36.9646C73.9303 35.8249 72.8854 35.4568 71.9441 35.3043C64.6336 34.1199 65.1674 24.2579 71.7535 23.1843C72.7645 23.0193 73.9309 22.7548 73.9309 21.549C73.9309 19.7022 71.7082 20.0399 70.3117 20.4165C68.9588 20.7811 67.8036 21.5949 66.6372 22.2121C66.6372 20.7757 66.6372 19.3387 66.6372 17.9024C66.6372 13.9359 67.1995 14.2558 63.9849 14.2558C63.603 14.2558 63.4874 14.3714 63.4874 14.7533V14.7521Z" fill="black"/>
<path fill-rule="evenodd" clip-rule="evenodd" d="M116.366 21.8796C116.366 23.3392 117.713 23.3374 118.952 23.6031C124.449 24.7827 122.878 30.4989 125.151 30.4989C127.961 30.4989 126.079 25.9515 125.188 24.6605C124.836 24.1494 124.541 24.0064 124.488 23.3713C126.481 23.3713 127.969 23.7449 127.969 21.8796C127.969 20.862 127.18 20.3878 126.146 20.3878H118.023C117.18 20.3878 116.366 21.1039 116.366 21.8796Z" fill="black"/>
</svg>
