<svg width="128" height="50" viewBox="0 0 128 50" fill="none" xmlns="http://www.w3.org/2000/svg">
<path fill-rule="evenodd" clip-rule="evenodd" d="M6.09343 3.31667C6.92135 3.71403 8.38184 3.12519 9.41121 4.2099C8.53957 5.51156 7.35967 5.53203 5.60476 6.91117L2.28089 10.2223C1.3052 11.5184 0.404777 13.0664 0.129172 14.7056C-0.196242 16.6437 0.0854512 18.0621 1.06225 19.7036C1.7258 20.8182 2.29306 21.6179 3.33793 22.4043C4.29203 23.1221 5.51455 23.6379 6.6297 23.9611C7.18921 24.1232 6.91527 24.1138 7.46758 24.2715C7.7122 24.3413 8.24957 24.4426 8.53791 24.4774C9.42947 24.5848 9.93475 24.6257 10.9414 24.6257C11.2248 25.8422 13.4036 28.0293 14.8702 28.7355C15.4596 29.0194 16.0678 29.4023 16.9383 29.4743C16.4148 28.0287 15.2797 28.0027 15.2797 23.7325C15.2797 22.3063 15.8802 21.2327 16.4773 20.3367C16.8138 19.8309 17.0723 19.4822 17.52 19.0826C17.6987 18.9233 17.6152 19.0024 17.784 18.8364C17.8028 18.8181 17.8277 18.7899 17.8465 18.7716L18.1105 18.5253C18.4215 18.2481 18.4852 18.2824 18.597 17.8634C18.2876 18.0118 17.1177 18.0737 16.2831 18.3571C15.9261 18.4783 15.5963 18.6155 15.2609 18.7384L13.9332 19.4518C13.8879 19.4806 13.7229 19.599 13.7074 19.6089C13.4263 19.7905 13.7174 19.6051 13.4678 19.7523L11.3238 21.9466C10.2214 21.3633 8.88767 20.6759 8.28167 19.5021C7.58436 18.1523 7.75149 18.0643 7.75149 16.46C7.75149 15.8822 7.66848 16.6974 8.09627 15.6564C8.67958 14.2363 9.95689 13.3995 11.4229 12.9856C12.2979 12.7387 12.491 12.6856 13.387 12.7432C14.236 12.7979 14.6145 12.6242 15.5365 12.633C17.7552 12.6546 19.6645 11.9296 21.56 11.3834C22.4477 11.1277 23.9336 10.3745 24.7477 9.84985C25.8922 9.11214 26.677 8.7181 27.8674 7.6107L31.0147 3.99573C31.2942 3.55022 31.8221 2.973 31.8675 2.424C31.5643 2.3432 30.464 1.68573 29.6477 1.45385C26.7102 0.618729 24.3609 0.140016 21.9789 0H18.9406C17.4027 0.084674 15.7568 0.293869 13.8607 0.622049L7.38512 2.44005C6.76363 2.66031 6.27827 2.62379 6.09343 3.31723V3.31667Z" fill="black"/>
<path fill-rule="evenodd" clip-rule="evenodd" d="M44.3728 33.812V33.1739C44.3728 30.5064 46.4266 28.4527 49.0941 28.4527C50.4937 28.4527 50.9624 28.5207 52.1213 29.2535C53.1141 29.8811 54.1977 31.6847 54.1977 32.6637C54.1977 34.05 54.3062 34.6626 53.6261 36.0479C53.5109 36.2825 53.3073 36.5714 53.1861 36.7563L52.6531 37.3717C52.6266 37.3977 52.5541 37.4752 52.5264 37.5001C52.507 37.5178 52.4799 37.5443 52.46 37.5615C52.4401 37.5786 52.4113 37.603 52.3908 37.6196C50.5833 39.0651 48.5301 39.1869 46.5909 37.8448C45.4238 37.0374 44.3722 35.5022 44.3722 33.8115L44.3728 33.812ZM38.248 27.0492C38.4163 27.6795 40.5448 29.1727 40.5448 32.9188V49.1236H44.6279V41.3403C47.063 42.9707 51.0344 43.0526 53.7439 41.524C54.7418 40.9612 54.9189 40.783 55.7357 40.0707C56.127 39.7293 56.3976 39.3158 56.7341 38.8997C59.0922 35.9831 59.2339 31.1263 56.8503 28.2252C55.7147 26.8428 54.9742 26.203 53.3488 25.3468L51.7804 24.7464C49.7454 24.2284 46.5649 24.2793 44.6993 25.7165C44.2566 26.0574 44.2245 26.1532 43.7358 26.4116L42.2847 25.1836C42.2643 25.1664 42.2355 25.1421 42.2155 25.1255C41.7855 24.7635 41.2166 24.1603 40.6737 24.1155C40.5193 24.7785 38.6664 26.4271 38.2492 27.0503L38.248 27.0492Z" fill="black"/>
<path fill-rule="evenodd" clip-rule="evenodd" d="M83.6727 38.6606C81.822 38.6606 79.9664 37.8543 79.2392 36.0762C78.7339 34.8404 78.3891 33.2764 78.911 31.9852C79.0455 31.6532 79.0947 31.4672 79.2209 31.1468C80.2226 28.5916 84.1004 27.1715 86.7514 29.585C90.0343 32.5741 88.6679 38.6606 83.6727 38.6606ZM88.2661 25.3906C88.2661 25.8782 88.2268 25.4371 88.3939 25.7736C88.0226 25.6745 87.8383 25.4825 87.4603 25.3037C87.1138 25.1399 86.7209 24.9828 86.3695 24.8632C84.4259 24.2019 81.4778 24.4426 79.6299 25.3032L76.4527 27.7405C75.8317 28.5352 75.0464 29.7992 74.7653 30.6465C74.1482 32.5049 74.1233 33.8182 74.5157 35.6954C74.7758 36.9389 75.2517 37.8084 75.9634 38.8416C76.3093 39.3436 76.6552 39.6153 77.0692 40.0326C78.1246 41.0974 80.0156 42.1544 81.5569 42.4356C81.9277 42.5031 82.3018 42.5324 82.5581 42.5828C84.3323 42.9314 86.52 42.4937 87.9373 41.5224C88.3496 41.2402 88.6562 40.954 89.0315 40.7028C89.244 40.845 89.5412 41.0625 89.7697 41.2402L90.555 41.8583C91.2059 42.2845 91.4638 42.8313 92.0936 42.9995C92.844 41.8788 93.8961 41.0564 94.6454 39.9374C93.7987 38.6728 93.7472 39.5511 92.7411 37.1205C92.3791 36.2461 92.3487 35.696 92.3487 34.578V17.9902H88.2655V25.3906H88.2661Z" fill="black"/>
<path fill-rule="evenodd" clip-rule="evenodd" d="M22.171 24.37C22.171 25.1072 22.197 25.7082 22.4056 26.3048C22.6801 27.0896 22.9663 27.8815 23.4843 28.5434C23.8722 29.0393 24.2259 29.4925 24.7029 29.8766C25.1849 30.2651 25.7218 30.673 26.2802 30.9785C26.4506 31.072 26.5043 31.093 26.6986 31.1982L28.8436 32.2431C29.5935 32.569 32.7619 33.9875 32.7619 35.0877V36.236C32.7619 36.8415 31.7535 38.1498 30.21 38.1498C27.3289 38.1498 26.6521 37.5266 25.3615 35.0877C24.1738 35.3644 22.8733 36.4341 21.5334 36.7463C21.5788 37.292 22.2274 38.6822 22.5003 39.0972C22.6409 39.3108 22.6896 39.3905 22.8013 39.5621L23.0144 39.8593C23.031 39.8798 23.0576 39.9069 23.0747 39.9268C23.0991 39.955 23.1727 40.032 23.197 40.0596C23.4649 40.3657 23.6586 40.6424 23.9934 40.9219L24.9564 41.6175C26.4451 42.6209 28.6959 42.7437 30.4652 42.7437L33.2572 42.218C36.6718 40.9495 37.9652 37.9179 37.3802 34.5531C37.2225 33.6449 36.8605 32.9647 36.4056 32.2104C36.1992 31.8684 36.3829 32.0798 36.1101 31.74C35.2163 30.6276 34.3497 30.0244 33.152 29.3392L29.5553 27.5766C28.0307 26.8533 26.2918 25.2821 27.3699 23.4431C27.5829 23.0795 27.356 23.4331 27.5951 23.158C28.6084 21.9936 30.6688 22.3312 31.5853 23.2499C31.815 23.4801 32.0009 23.6473 32.2112 23.9002C33.0823 24.9467 32.9406 24.4044 35.4565 23.2361C35.881 23.0391 35.8649 22.9483 36.3348 22.8387C36.3348 20.7197 32.8759 18.1174 30.0828 18.1174C28.6344 18.1174 28.1994 18.014 26.8906 18.4977L25.232 19.2636C24.8462 19.4706 24.6155 19.6582 24.2652 19.9554L22.8722 21.7523C22.5097 22.4652 22.1721 23.3656 22.1721 24.3695L22.171 24.37Z" fill="black"/>
<path fill-rule="evenodd" clip-rule="evenodd" d="M113.02 33.6842C113.02 32.8214 113.068 31.9902 113.455 31.3111C115.397 27.902 118.927 27.3951 121.287 29.7549C124.521 32.9891 122.411 38.7879 117.869 38.7879C115.351 38.7879 113.02 36.422 113.02 33.6842ZM127.056 32.4467V34.3195C127.002 35.0999 126.882 35.8116 126.693 36.2565C126.179 37.4674 125.931 38.0397 125.168 39.0696L124.116 40.1869C123.982 40.3054 124.048 40.2545 123.917 40.3707L122.901 41.1405C122.711 41.2506 122.646 41.2711 122.485 41.3624L121.461 41.8694C120.212 42.3376 119.419 42.6347 117.88 42.5899C116.526 42.5506 115.253 42.264 114.22 41.7974C113.846 41.6281 113.846 41.5733 113.488 41.3818L112.18 40.5201C111.432 39.9335 110.183 38.4138 109.791 37.5499C108.832 35.4369 108.809 34.8171 108.809 32.662C108.809 30.8883 110.121 28.2955 111.464 27.0232L114.485 25.0679C115.489 24.5953 116.714 24.3684 118.124 24.3684C122.113 24.3684 125.397 26.9717 126.769 30.7798C126.914 31.1838 127.01 31.7821 127.056 32.4451L127.056 32.4467Z" fill="black"/>
<path fill-rule="evenodd" clip-rule="evenodd" d="M63.6397 36.619C63.6397 38.5903 62.4869 39.9362 61.7492 41.4913L58.2549 48.3322C58.0634 48.6399 57.9871 48.7412 57.8979 49.1236H62.6192C62.7459 48.5785 64.5817 45.2762 64.9303 44.5446L66.8834 40.7558C67.0394 40.473 67.1457 40.3524 67.2979 40.022C67.3659 39.8748 67.4069 39.7569 67.4512 39.6645L71.6533 31.6171C71.8193 31.3321 71.9201 31.1667 72.0579 30.8733L72.4087 30.2031C72.422 30.1777 72.4397 30.1456 72.453 30.1201L74.8333 25.5881C75.001 25.2871 75.1349 24.8803 74.6136 24.8803C69.7722 24.8803 70.8841 24.3728 69.4512 26.9911L66.4478 32.4085L63.5528 26.6269C62.3386 24.4182 63.6967 24.8803 58.4093 24.8803C58.427 25.6628 59.3612 27.1466 59.6866 27.8135C59.8012 28.0481 59.8687 28.2418 60.0054 28.5152L62.8207 34.1214C63.1228 34.7916 63.6403 35.6278 63.6403 36.619H63.6397Z" fill="black"/>
<path fill-rule="evenodd" clip-rule="evenodd" d="M95.4116 27.177C96.3104 28.519 95.9418 27.3812 97.0951 29.8317C97.8456 31.4267 97.5821 38.1132 97.5805 40.447C97.5788 42.788 96.8251 42.3607 101.536 42.3607C102.159 42.3607 101.919 41.043 101.919 40.447L101.917 33.1722C101.91 32.0997 101.92 31.8822 102.337 31.1672L102.634 30.6995C103.758 29.3093 105.807 29.0907 107.533 29.0907V24.8803C105.789 24.8803 103.896 25.0756 102.374 26.1006C101.95 26.3861 101.636 26.5488 101.536 26.9218C101.086 26.8017 101.002 26.5682 100.677 26.25C100.348 25.9273 100.177 25.8742 99.8434 25.5527C99.4029 25.1287 98.6796 24.2715 98.0919 24.1149C97.622 24.4591 95.7226 26.7137 95.4122 27.177H95.4116Z" fill="black"/>
<path fill-rule="evenodd" clip-rule="evenodd" d="M125.014 46.4439C125.133 46.9564 125.345 47.0975 125.397 47.7201H124.504C124.566 47.455 124.61 47.3034 124.716 47.0394L125.014 46.4439ZM126.368 49.1236H125.907C125.84 48.8325 125.808 48.8303 125.779 48.4855H124.248C123.962 49.0815 124.381 49.1214 123.082 49.1236H122.676H122.589C121.899 49.1236 121.992 48.537 121.687 48.1119L121.573 47.9714C121.318 47.7738 121.533 47.8585 121.058 47.8479C121.058 48.7622 121.184 49.1241 120.675 49.1241C119.868 49.1241 120.165 48.5713 120.165 45.8064C120.165 45.2734 120.608 45.4234 121.696 45.4234C123.43 45.4234 123.485 47.4129 122.334 47.7201C122.661 48.0306 122.861 48.3892 122.972 48.8685L123.903 46.9918C124.42 45.7837 124.07 45.4234 125.141 45.4234C125.628 45.4234 126.063 46.8695 126.262 47.4926C126.344 47.7483 126.349 47.8457 126.431 48.0914C126.493 48.2735 126.448 48.165 126.541 48.3776C126.824 49.0317 126.901 49.1153 126.368 49.1241V49.1236ZM121.059 47.082V46.1888C121.839 46.3703 122.185 45.9879 122.207 46.9542C121.715 46.9951 121.704 47.082 121.059 47.082Z" fill="black"/>
<path fill-rule="evenodd" clip-rule="evenodd" d="M69.2542 48.7407C69.2542 49.1026 69.4041 49.1226 69.6891 49.1237H69.7035H69.7334H69.7644C70.3676 49.1237 70.1474 48.133 70.1474 47.0821C70.6648 47.4612 70.1236 46.9537 70.6582 48.2304C71.1148 49.3212 70.9244 49.0822 71.4236 49.1237L72.3168 46.8269C72.3168 49.2426 72.1026 49.2543 73.21 48.9964C73.21 45.6454 73.5814 45.4235 72.3168 45.4235C71.8436 45.4235 71.7844 45.8983 71.6588 46.2968C71.5442 46.6604 71.3915 47.0539 71.2957 47.465C70.9681 47.2254 70.9858 47.0063 70.8336 46.5237L70.4025 45.4235H69.2542V48.7412V48.7407Z" fill="black"/>
<path fill-rule="evenodd" clip-rule="evenodd" d="M112.892 48.7407C112.892 49.1026 113.042 49.1226 113.327 49.1237H113.342H113.371H113.402C113.895 49.1237 113.8 48.7169 113.797 48.2415C113.793 47.8126 113.785 47.3848 113.785 46.9542C114.018 47.3206 114.203 48.682 114.806 49.1237C115.165 48.8608 114.906 49.2017 115.259 48.428L115.691 47.3295C115.812 47.0622 115.733 47.216 115.826 47.0821V48.9958C116.068 49.0539 116.248 49.1093 116.38 49.1237H116.492C116.856 49.07 116.719 48.3754 116.719 45.4235C114.843 45.4235 115.647 45.8496 114.933 47.3372C114.135 46.8032 114.493 45.4235 113.656 45.4235H112.891V48.7412L112.892 48.7407Z" fill="black"/>
<path fill-rule="evenodd" clip-rule="evenodd" d="M97.1978 49.1236H97.2891C98.195 49.1225 97.9631 49.0733 97.9631 46.9542C98.6997 47.4473 99.1641 49.1236 100.005 49.1236C100.679 49.1236 100.388 47.6786 100.388 45.8058C100.388 45.4129 100.211 45.4229 99.8774 45.4229C99.2742 45.4229 99.4945 46.4135 99.4945 47.4645L99.0755 46.9902C98.0334 45.5031 98.3732 45.4229 97.1978 45.4229V49.1231V49.1236Z" fill="black"/>
<path fill-rule="evenodd" clip-rule="evenodd" d="M100.771 47.3371C100.771 49.7694 104.216 49.3427 104.216 48.2303C104.216 46.7372 104.438 46.9541 102.812 46.9541C102.358 46.9541 102.429 47.2026 102.429 47.7195H103.322C103.198 49.2099 100.874 47.942 101.895 46.5457C102.005 46.3957 102.379 46.1511 102.58 46.1401C103.318 46.0991 102.999 46.8922 104.088 46.316C103.796 45.223 102.043 45.0703 101.232 46.0117C100.908 46.3874 100.77 46.6874 100.77 47.3366L100.771 47.3371Z" fill="black"/>
<path fill-rule="evenodd" clip-rule="evenodd" d="M78.441 47.082H78.058V46.1888C78.6386 46.4672 78.9872 45.8778 79.2064 46.6991C79.0171 46.9575 78.9136 47.082 78.441 47.082ZM77.1648 48.7406C77.1648 49.1026 77.3148 49.1225 77.5998 49.1236H77.6142H77.6441H77.6751C78.2412 49.1236 78.058 48.439 78.058 47.8474C78.6701 47.8983 78.6363 48.0765 78.8549 48.5813C79.021 48.9642 78.7968 49.1231 79.9718 49.1231C79.922 48.522 79.6353 48.1939 79.3337 47.8469C79.7626 47.2613 79.9718 47.7223 79.9718 46.4434C79.9718 45.1544 78.3259 45.4229 77.1648 45.4229V48.7406Z" fill="black"/>
<path fill-rule="evenodd" clip-rule="evenodd" d="M91.9668 45.8065C91.9668 48.5714 91.6702 49.1242 92.4771 49.1242C93.01 49.1242 92.8601 48.6815 92.8601 47.5929H94.3914C94.3914 49.0174 94.2552 49.1242 94.9016 49.1242C95.1955 49.1242 95.2846 49.0357 95.2846 48.7413V45.4235H94.3914V46.827H92.8601V45.4235C92.2391 45.4235 91.9668 45.3371 91.9668 45.8065Z" fill="black"/>
<path fill-rule="evenodd" clip-rule="evenodd" d="M117.231 45.8063C117.231 48.2873 117.009 48.9658 117.5 49.1241H119.4C119.854 49.1241 119.783 48.8756 119.783 48.3587H118.124V47.5933H119.783V46.8279H118.124V46.1898C118.924 46.3763 118.983 46.3763 119.783 46.1898V45.4245C118.159 45.4245 117.231 45.1876 117.231 45.8074L117.231 45.8063Z" fill="black"/>
<path fill-rule="evenodd" clip-rule="evenodd" d="M110.851 46.444C111.1 46.8031 111.223 47.2426 111.234 47.7202H110.34C110.571 47.2846 110.723 46.9908 110.851 46.444ZM112.637 49.1237H112.152C111.798 49.1098 111.74 49.0152 111.617 48.4856H110.213C110.008 48.9139 110.12 49.1237 109.448 49.1237C108.769 49.1237 109.369 48.1004 109.65 47.4119L110.341 45.4235H111.362C111.504 45.7201 111.562 46.0134 111.707 46.3538L112.422 48.1911C112.568 48.5232 112.628 48.6903 112.638 49.1237H112.637Z" fill="black"/>
<path fill-rule="evenodd" clip-rule="evenodd" d="M75.251 46.444C75.266 47.1081 75.4563 47.1214 75.5062 47.7202H74.6129C75.0867 46.8247 74.7784 46.7904 75.251 46.444ZM76.9096 49.1237H76.3817C76.0585 49.1048 75.9312 48.9969 75.8886 48.4856H74.3572C74.3462 48.9836 74.2421 49.1004 73.9383 49.1237H73.3362C73.4031 48.3206 74.3772 46.4324 74.6124 45.4235H75.6329C75.8532 46.3693 76.8919 48.3605 76.9091 49.1237H76.9096Z" fill="black"/>
<path fill-rule="evenodd" clip-rule="evenodd" d="M67.978 48.3583C66.0349 48.3583 67.4528 48.07 66.3193 47.9753C66.1616 48.2736 66.1002 48.3074 66.0642 48.7407C66.4721 48.9566 66.8506 49.0767 67.1904 49.1237H67.8213C68.7079 48.9876 69.1529 48.267 68.8662 47.6101C68.4473 46.6521 67.4218 47.0782 66.9574 46.444C67.4682 45.6808 67.5723 46.2603 68.3609 46.444C68.8524 46.0837 68.9265 45.998 68.6913 45.7489C68.4013 45.4423 66.7117 45.1119 66.2751 45.8983C66.0886 46.2348 66.0797 46.6753 66.2463 47.0163C66.8003 48.1513 67.9486 47.0196 67.978 48.3578V48.3583Z" fill="black"/>
<path fill-rule="evenodd" clip-rule="evenodd" d="M88.904 46.3167C88.904 48.1706 90.7231 47.0937 90.8177 48.2304C90.049 48.6621 89.6345 48.0256 89.0312 47.9753L88.884 48.7368C90.2936 49.4607 91.7104 49.0722 91.7104 48.2304C91.7104 47.7511 91.8299 47.3095 90.9577 46.9415C90.4602 46.7317 90.1165 46.8806 89.7966 46.4439C90.3501 45.6171 90.4137 46.3681 91.328 46.4439C91.4669 46.1811 91.5051 46.1412 91.5831 45.8058C90.4851 45.0703 88.9034 45.4007 88.9034 46.3161L88.904 46.3167Z" fill="black"/>
<path fill-rule="evenodd" clip-rule="evenodd" d="M105.747 47.0821C105.747 48.3976 106.556 49.0213 107.38 49.1237H107.871C108.437 49.0523 108.93 48.7346 109.065 48.2305C108.966 48.0954 109.027 48.1624 108.869 48.0434L108.555 47.8475C107.955 48.2493 108.332 48.3578 107.406 48.3578C106.697 48.3578 106.139 46.7257 107.314 46.2116C108.253 45.8009 107.574 46.791 109.065 46.444C108.926 44.7777 105.748 45.1938 105.748 47.0821H105.747Z" fill="black"/>
<path fill-rule="evenodd" clip-rule="evenodd" d="M84.6936 49.1237C86.3921 49.1237 84.7307 47.5923 85.842 47.5923H87.1182V46.8269H85.4595C85.4761 46.0776 85.4994 46.2481 86.0971 46.3029C87.1956 46.403 87.1182 46.32 87.1182 45.4235H84.6936V49.1237Z" fill="black"/>
<path fill-rule="evenodd" clip-rule="evenodd" d="M80.1002 45.8064C80.1002 46.605 81.0228 46.2121 81.1207 46.1894C81.1207 46.7423 81.1257 47.2979 81.1185 47.8502C81.1069 48.6992 80.9365 49.1237 81.631 49.1237C82.2442 49.1237 82.0184 47.9155 82.0095 47.3328C81.988 45.8944 81.8679 46.3167 82.9067 46.3167C83.1673 45.227 83.3239 45.4235 80.4821 45.4235C80.1882 45.4235 80.0991 45.512 80.0991 45.8064H80.1002Z" fill="black"/>
<path fill-rule="evenodd" clip-rule="evenodd" d="M95.667 48.9963C96.0423 49.0837 96.0567 49.1241 96.5603 49.1241V45.424C95.3062 45.424 95.667 45.5678 95.667 48.9969V48.9963Z" fill="black"/>
<path fill-rule="evenodd" clip-rule="evenodd" d="M87.6277 49.1236H88.0107C88.3045 49.1236 88.3936 49.0351 88.3936 48.7406V45.4229H87.6282V49.123L87.6277 49.1236Z" fill="black"/>
</svg>
