<svg width="129" height="27" viewBox="0 0 129 27" fill="none" xmlns="http://www.w3.org/2000/svg">
<path fill-rule="evenodd" clip-rule="evenodd" d="M0 5.61891V20.3906C0 21.6136 0.313857 22.8671 1.144 23.6871C1.57114 24.1096 1.80607 24.3761 2.38643 24.6649C3.13114 25.0354 3.549 25.1477 4.44043 25.1477V14.8619C5.20836 15.7459 6.33286 17.2288 7.14908 18.2252L9.68872 21.3944C9.77229 21.5003 9.78901 21.5319 9.92365 21.5671C9.98029 21.3536 11.7251 19.2847 11.9229 19.0358L15.3149 14.8164C15.3149 16.0895 15.2694 17.2121 15.2694 18.4861V24.4671C15.2694 24.7689 15.3149 24.8589 15.3149 25.1468C16.4942 25.1468 17.7348 24.6686 18.4981 23.7985C19.2697 22.9182 19.7108 21.9655 19.7108 20.7064V5.48148C17.7181 5.48148 16.7691 6.50106 15.8656 7.6172L10.4223 14.1813C10.2449 14.4097 10.0416 14.6177 9.87815 14.861L3.68086 7.37484C2.95472 6.54191 2.3725 5.9402 1.19786 5.64398C0.940643 5.57898 0.000928572 5.30506 0.000928572 5.61706L0 5.61891Z" fill="#030405"/>
<path fill-rule="evenodd" clip-rule="evenodd" d="M113.775 15.3606C113.775 12.3418 116.239 9.96841 119.076 9.96841C120.266 9.96841 121.342 10.2665 122.276 10.8923L123.008 11.4746C123.858 12.3084 124.604 13.7895 124.604 14.9985C124.604 16.0561 124.572 16.7414 124.091 17.7025C123.904 18.0767 123.622 18.554 123.347 18.8604L122.902 19.3219C122.815 19.3888 122.809 19.4027 122.735 19.4723C122.066 20.0973 120.526 20.7528 119.575 20.7528C118.396 20.7528 117.936 20.7315 116.811 20.2087C115.654 19.6711 114.75 18.697 114.228 17.5344C113.982 16.9856 113.775 16.1527 113.775 15.3597V15.3606ZM109.38 15.3606C109.38 17.6031 110.194 19.8094 111.57 21.5087C111.721 21.6963 112.247 22.3091 112.435 22.4549C112.587 22.5719 112.613 22.6137 112.744 22.7353C114.172 24.0651 116.723 25.1478 118.76 25.1478C120.009 25.1478 120.414 25.1654 121.678 24.8497C123.839 24.3093 126.018 22.8143 127.233 20.9794C128.503 19.061 129 17.5586 129 14.9985C129 13.7013 128.52 12.0874 128.079 11.2071C127.808 10.6648 127.556 10.1903 127.213 9.71677C124.507 5.97648 119.771 4.57898 115.523 6.27919C114.42 6.72027 113.773 7.16691 112.875 7.8912C110.725 9.6267 109.38 12.5638 109.38 15.3616V15.3606Z" fill="#030405"/>
<path fill-rule="evenodd" clip-rule="evenodd" d="M70.3227 25.1477C71.0479 25.1477 71.4816 25.0781 72.1344 24.7846C73.3629 24.234 74.2812 23.1513 74.5997 21.7677C74.8263 20.7834 74.7176 19.3701 74.7176 18.215C74.7176 16.9921 74.7176 15.7682 74.7176 14.5453C74.8588 14.6391 74.9219 14.7728 75.0454 14.8972C75.1754 15.0291 75.2776 15.1275 75.4085 15.2584C75.5246 15.3736 75.6434 15.4776 75.7465 15.6001C76.0724 15.9901 76.4188 16.2798 76.6073 16.5064C77.0047 16.9818 77.1774 17.0756 77.4922 17.4331C77.6194 17.578 77.6649 17.6523 77.8098 17.7953L79.1924 19.2225C79.3391 19.3673 79.3921 19.4686 79.5314 19.6088L81.6169 21.7826C82.5111 22.6768 83.5149 23.9638 84.5243 24.5841C85.1956 24.9973 85.9329 25.2127 86.725 25.1468V6.65984C86.725 6.44812 86.7231 6.23641 86.725 6.02469C86.7269 5.80833 86.7909 5.52698 86.5885 5.52698C84.8038 5.52698 83.215 6.74062 82.5743 8.39998C82.1666 9.45669 82.2836 11.5478 82.2836 12.8218C82.2836 13.9761 82.3291 14.9771 82.3291 16.1294C82.1249 15.9929 81.7943 15.6354 81.6299 15.4237C81.4321 15.1665 80.2482 14.0243 79.9344 13.6306L74.0955 7.50669C73.6637 6.99041 73.2078 6.51034 72.6302 6.16305C71.9932 5.77955 71.2717 5.52698 70.3218 5.52698V25.1468L70.3227 25.1477Z" fill="#030405"/>
<path fill-rule="evenodd" clip-rule="evenodd" d="M90.0324 14.9074C90.0324 16.6698 90.2042 18.0181 90.9536 19.515C91.3863 20.3804 91.7484 20.9375 92.3371 21.6655L92.8989 22.2821C93.5006 22.882 94.1311 23.3676 94.8619 23.8087C96.0579 24.5311 97.9494 25.1486 99.4129 25.1486C101.056 25.1486 102.412 25.0112 103.808 24.3333C104.371 24.0603 104.679 23.9145 105.222 23.5728C105.351 23.4911 105.412 23.4317 105.539 23.3463L106.153 22.8736C106.254 22.7928 106.436 22.7046 106.436 22.5672V13.1422H101.769C100.717 13.1422 99.8836 13.6418 99.1473 14.236C99.0275 14.3326 98.9653 14.367 98.8576 14.4905C98.1045 15.355 97.6458 16.3021 97.6458 17.5371H102.041V20.3015C100.935 20.5587 101.17 20.7546 99.6394 20.7546C98.5251 20.7546 97.1063 20.1882 96.343 19.4741C95.8899 19.0498 95.8035 19.0024 95.3921 18.4313C94.7319 17.5158 94.4283 16.4544 94.4283 15.2268C94.4283 13.0363 95.9316 11.0548 97.6959 10.3388C99.7499 9.5059 101.153 10.1076 102.657 9.86247C103.57 9.7139 104.333 9.30254 104.951 8.75747C105.838 7.97654 106.435 6.75547 106.435 5.48425H99.7286C98.2986 5.48425 97.0561 5.85382 95.8379 6.35154C94.12 7.05354 92.3733 8.67575 91.4216 10.2729C90.6239 11.6119 90.0315 13.2731 90.0315 14.9093L90.0324 14.9074Z" fill="#030405"/>
<path fill-rule="evenodd" clip-rule="evenodd" d="M42.456 11.3733C42.456 14.0773 43.9399 16.2669 46.3588 17.1667C47.7052 17.6672 49.2067 17.5353 50.6572 17.5353C51.3378 17.5353 52.3992 17.4434 52.8932 17.656C53.9489 18.111 54.2535 19.477 53.3435 20.3572C53.0278 20.6618 52.7158 20.7556 52.1076 20.7528H43.1357C42.6817 20.7528 42.456 20.647 42.456 20.9794C42.456 21.6182 42.6714 22.1726 42.8562 22.6174C43.028 23.0297 43.392 23.5265 43.6901 23.8227C44.3819 24.5089 45.4544 25.1477 46.4879 25.1477H52.6044C53.3909 25.1477 54.2972 24.8469 54.8552 24.5897C55.4848 24.299 56.0299 23.8747 56.5127 23.3927C56.8331 23.0724 57.2157 22.6443 57.4376 22.233C58.121 20.9701 58.2687 20.3777 58.2687 18.8502C58.2687 16.5724 56.4524 14.212 54.2869 13.497C52.7984 13.0057 51.5625 13.1404 49.9765 13.1404C49.2587 13.1404 48.3107 13.2314 47.8009 13.0048C46.6894 12.5117 46.4907 10.9815 47.5158 10.2256C48.0052 9.86531 48.3664 9.92289 49.1612 9.92289C50.2699 9.92289 51.9776 10.013 52.9544 9.86531C53.8626 9.72789 54.8822 9.19767 55.4699 8.5291C56.2267 7.66924 56.6372 6.74345 56.6372 5.52795H48.2094C47.4239 5.52795 46.421 5.83067 45.8834 6.10181C45.2259 6.43331 44.7078 6.78988 44.1878 7.30617C43.3363 8.1521 42.4551 9.6926 42.4551 11.3733H42.456Z" fill="#030405"/>
<path fill-rule="evenodd" clip-rule="evenodd" d="M20.8882 25.1476C21.6208 25.1476 27.5108 25.1941 27.9388 25.13C29.9603 24.8263 31.5714 23.1828 31.7163 21.204C31.7571 20.6478 31.9828 20.7527 30.4943 20.7527C29.6938 20.7527 28.8934 20.7527 28.093 20.7527C28.1357 20.5688 28.3233 20.2466 28.4105 20.073C28.522 19.8501 28.6167 19.6161 28.7272 19.3923L29.3772 18.0487C29.4979 17.8073 30.562 15.4775 30.7218 15.3605C30.7691 15.5629 31.0078 15.9789 31.1145 16.1915L33.969 21.9004C34.1138 22.1901 34.2318 22.426 34.3766 22.7157C34.853 23.6693 35.034 24.0324 36.1149 24.6481C36.5931 24.9201 37.4716 25.1513 38.0612 25.1486C38.8765 25.1439 39.6927 25.1476 40.5089 25.1476L30.7041 5.53711C30.5555 5.65132 28.3279 10.2255 28.2453 10.3917L22.113 22.6563C21.9347 23.0119 20.9393 24.9368 20.89 25.1486L20.8882 25.1476Z" fill="#030405"/>
<path fill-rule="evenodd" clip-rule="evenodd" d="M66.0178 25.1933V7.79367C65.8385 7.80853 65.7429 7.8856 65.5953 7.95988C65.4504 8.03324 65.2888 8.1001 65.1505 8.15024C63.4113 8.7761 61.8837 7.76303 61.7129 7.74817C61.7129 9.56074 61.7129 11.3733 61.7129 13.1859C61.7129 15.0291 61.7584 16.7293 61.7584 18.5781C61.7584 20.6906 61.582 21.9804 62.4734 23.2999C63.1364 24.2814 64.39 25.1933 66.0178 25.1933Z" fill="#030405"/>
<path fill-rule="evenodd" clip-rule="evenodd" d="M60.2178 3.67075C60.2178 6.03582 62.6497 8.12418 65.3778 7.01825C65.9796 6.77403 66.4875 6.30975 66.8728 5.79532C68.9278 3.05603 66.1058 -1.2609 62.334 0.350174C61.1083 0.873889 60.2178 2.30667 60.2178 3.67168V3.67075Z" fill="#030405"/>
<path fill-rule="evenodd" clip-rule="evenodd" d="M64.1596 26.9603H64.4317C64.4317 26.7272 64.4614 25.872 64.3788 25.6993C64.3063 25.5479 64.0584 25.5312 63.6071 25.248C63.0286 24.8849 62.8318 24.6258 62.6646 24.5144C62.6646 25.3659 62.5866 26.0438 63.0825 26.5433C63.3146 26.7773 63.7984 26.9612 64.1596 26.9612V26.9603Z" fill="#030405"/>
</svg>
