<svg width="17" height="36" viewBox="0 0 17 36" fill="none" xmlns="http://www.w3.org/2000/svg">
<path d="M6.80211 20.3709C6.433 20.2526 4.9513 21.276 4.29218 21.7491C4.1129 21.8777 3.82816 21.8726 3.65416 21.7389C3.48015 21.6051 3.47488 21.384 3.64888 21.2451C4.42401 20.6177 6.38027 19.0029 6.24845 18.7611C6.09026 18.4629 1.85081 18.3754 0.4482 18.3549C0.200371 18.3497 -7.95347e-07 18.1954 -7.8703e-07 18.0051C-7.78712e-07 17.8149 0.200371 17.6554 0.4482 17.6554C1.85081 17.6349 6.09026 17.5474 6.24845 17.2491C6.375 17.0074 4.42401 15.3926 3.64888 14.7651C3.47488 14.6263 3.48015 14.4051 3.65943 14.2714C3.83344 14.1377 4.1129 14.1326 4.29746 14.2611C4.95658 14.7343 6.44355 15.7577 6.80738 15.6394C7.79342 15.3154 8.01489 2.61257 8.04653 0.344572C8.0518 0.154286 8.25217 3.60714e-07 8.5 3.71547e-07C8.74783 3.8238e-07 8.9482 0.154286 8.95348 0.344572C8.98511 2.61257 9.20658 15.3103 10.1979 15.6343C10.5617 15.7526 12.0434 14.7343 12.7025 14.2611C12.8871 14.1326 13.1666 14.1377 13.3406 14.2714C13.5146 14.4051 13.5146 14.6263 13.3458 14.76C12.576 15.3874 10.6197 17.0023 10.7516 17.244C10.9097 17.5423 15.1492 17.6297 16.5518 17.6503C16.7996 17.6554 17 17.8097 17 18C17 18.1903 16.7996 18.3497 16.5518 18.3497C15.1492 18.3703 10.9097 18.4577 10.7516 18.756C10.6197 18.9977 12.576 20.6126 13.3511 21.24C13.5251 21.3789 13.5199 21.6 13.3406 21.7337C13.1666 21.8674 12.8871 21.8726 12.7025 21.744C12.0434 21.2709 10.5565 20.2474 10.1926 20.3657C9.19603 20.6846 8.97984 33.3874 8.9482 35.6554C8.94293 35.8457 8.74256 36 8.49473 36C8.2469 36 8.04653 35.8457 8.04125 35.6554C8.01489 33.3874 7.79343 20.6897 6.80211 20.3709Z" fill="black"/>
</svg>
