<svg width="71" height="28" viewBox="0 0 71 28" fill="none" xmlns="http://www.w3.org/2000/svg">
<path d="M7.575 19.75V13.975H13.315V12.575H7.575V6.8H6.105V12.575H0.365V13.975H6.105V19.75H7.575Z" fill="url(#paint0_linear_0_1)"/>
<path d="M33.15 17V13.45H36.275V11.825H33.15V0.25H31.05L20.625 12.15V13.45H31.35V17H33.15ZM23.075 11.825V11.675L31.225 2.4H31.35V11.825H23.075ZM45.5445 17.25C50.2945 17.25 53.2945 14.025 53.2945 8.625C53.2945 3.25 50.2945 -1.78814e-07 45.5445 -1.78814e-07C40.7695 -1.78814e-07 37.7695 3.25 37.7695 8.625C37.7695 14.025 40.7695 17.25 45.5445 17.25ZM45.5445 15.55C41.6445 15.55 39.6445 13.3 39.6445 8.625C39.6445 3.95 41.6445 1.7 45.5445 1.7C49.4195 1.7 51.4195 3.95 51.4195 8.625C51.4195 13.3 49.4195 15.55 45.5445 15.55ZM62.8297 17.25C67.5797 17.25 70.5797 14.025 70.5797 8.625C70.5797 3.25 67.5797 -1.78814e-07 62.8297 -1.78814e-07C58.0547 -1.78814e-07 55.0547 3.25 55.0547 8.625C55.0547 14.025 58.0547 17.25 62.8297 17.25ZM62.8297 15.55C58.9297 15.55 56.9297 13.3 56.9297 8.625C56.9297 3.95 58.9297 1.7 62.8297 1.7C66.7047 1.7 68.7047 3.95 68.7047 8.625C68.7047 13.3 66.7047 15.55 62.8297 15.55ZM21.71 27V23.94L21.656 22.995H21.755L22.106 23.94L23.366 26.64H25.004L26.264 23.94L26.615 22.995H26.714L26.669 23.94V27H28.019V20.97H26.183L24.815 23.94L24.266 25.353H24.167L23.6 23.94L22.187 20.97H20.36V27H21.71ZM31.8322 27.09C33.8752 27.09 35.1082 25.866 35.1082 23.985C35.1082 22.104 33.8752 20.88 31.8322 20.88C29.8342 20.88 28.5922 22.104 28.5922 23.985C28.5922 25.866 29.8342 27.09 31.8322 27.09ZM31.8322 25.794C30.5092 25.794 30.0232 25.326 30.0232 23.985C30.0232 22.644 30.5092 22.176 31.8322 22.176C33.1552 22.176 33.6682 22.644 33.6682 23.985C33.6682 25.326 33.1552 25.794 31.8322 25.794ZM37.0469 27V24.813H37.9379C38.6399 24.813 38.8649 24.966 39.1079 25.434L39.9359 27H41.5019L40.6289 25.38C40.4039 24.957 40.1969 24.669 39.6569 24.525V24.453C40.7909 24.345 41.3579 23.76 41.3579 22.779C41.3579 21.627 40.5119 20.97 39.0269 20.97H35.6969V27H37.0469ZM37.0469 22.185H39.0179C39.6569 22.185 39.9449 22.392 39.9449 22.986C39.9449 23.616 39.6569 23.796 39.0179 23.796H37.0469V22.185ZM47.0314 27V25.785H43.2784V24.57H46.8964V23.364H43.2784V22.185H47.0314V20.97H41.9284V27H47.0314Z" fill="url(#paint1_linear_0_1)"/>
<defs>
<linearGradient id="paint0_linear_0_1" x1="-1.11406" y1="13.4494" x2="15.1978" y2="13.4494" gradientUnits="userSpaceOnUse">
<stop stop-color="#6F6F6F"/>
<stop offset="1" stop-color="#717171"/>
</linearGradient>
<linearGradient id="paint1_linear_0_1" x1="19.6293" y1="11.5074" x2="72.6429" y2="11.5074" gradientUnits="userSpaceOnUse">
<stop stop-color="#6F6F6F"/>
<stop offset="1" stop-color="#717171"/>
</linearGradient>
</defs>
</svg>
