<svg width="311" height="183" viewBox="0 0 311 183" fill="none" xmlns="http://www.w3.org/2000/svg">
<path d="M18.4691 103.235C13.4712 103.691 11.3918 104.1 10.3626 106.333C10.2254 106.615 10.1093 106.935 10.009 107.283C9.64224 108.523 9.44433 110.194 9.2385 112.469C9.02739 110.194 8.82948 108.523 8.46269 107.283C8.35977 106.935 8.2463 106.615 8.10909 106.333C7.07995 104.1 5.00056 103.691 0 103.235C4.99792 102.778 7.07995 102.369 8.10909 100.136C8.2463 99.8537 8.36769 99.5344 8.46269 99.1807C8.82948 97.9403 9.02739 96.275 9.2385 94C9.44169 96.275 9.64224 97.9403 10.009 99.1807C10.1119 99.5344 10.2254 99.8537 10.3626 100.136C11.3918 102.369 13.4712 102.778 18.4691 103.235Z" fill="black"/>
<path d="M108.557 52.0029C108.557 38.1958 119.75 27.0029 133.557 27.0029H254.36C268.167 27.0029 279.36 38.1958 279.36 52.0029V173.332H108.557V52.0029Z" fill="#949494"/>
<path d="M93.7716 56.5908C93.7716 42.7837 104.964 31.5908 118.772 31.5908H268.636C282.443 31.5908 293.636 42.7837 293.636 56.5908V182.509H93.7716V56.5908Z" fill="#646464"/>
<path d="M76.4364 62.1992C76.4364 48.3921 87.6293 37.1992 101.436 37.1992H285.971C299.778 37.1992 310.971 48.3921 310.971 62.1992V182.509H76.4364V62.1992Z" fill="#D9D9D9"/>
<path d="M73.2266 1C73.2266 1 91.7167 19.2632 82.5569 25.2182C59.8142 40.0041 73.2266 48.4168 73.2266 48.4168" stroke="black"/>
</svg>
