<svg width="28" height="87" viewBox="0 0 28 87" fill="none" xmlns="http://www.w3.org/2000/svg">
<path d="M8.45285 1L0.52832 1L0.528321 8.92453" stroke="black"/>
<path d="M19.5472 1L27.4717 1L27.4717 8.92453" stroke="black"/>
<path d="M8.45285 86L0.52832 86L0.52832 78.0755" stroke="black"/>
<path d="M19.5472 86L27.4717 86L27.4717 78.0755" stroke="black"/>
<path d="M18 68.8L16.26 68.03L16.26 64.49L18 63.72L18 62.5L11.3 65.49L11.3 67.01L18 70L18 68.8ZM13.25 66.69L12.3 66.3L12.3 66.22L13.25 65.83L15.29 64.92L15.29 67.6L13.25 66.69ZM18 58.16C18 56.78 17.3 56.01 16.15 56.01C15.27 56.01 14.65 56.57 14.52 57.71L14.45 57.71C14.33 56.69 13.74 56.25 12.95 56.25C11.89 56.25 11.3 57.02 11.3 58.3L11.3 62.05L18 62.05L18 58.16ZM12.27 60.98L12.27 58.42C12.27 57.67 12.56 57.32 13.19 57.32C13.82 57.32 14.11 57.7 14.11 58.45L14.11 60.98L12.27 60.98ZM15 60.98L15 58.28C15 57.49 15.3 57.09 16 57.09C16.73 57.09 17.03 57.48 17.03 58.28L17.03 60.98L15 60.98ZM18.1 52.0205C18.1 49.9005 16.74 48.5205 14.65 48.5205C12.56 48.5205 11.2 49.9005 11.2 52.0205C11.2 54.1205 12.56 55.5105 14.65 55.5105C16.74 55.5105 18.1 54.1205 18.1 52.0205ZM17.06 52.0205C17.06 53.6105 16.32 54.3705 14.65 54.3705C12.98 54.3705 12.23 53.6105 12.23 52.0205C12.23 50.4305 12.98 49.6605 14.65 49.6605C16.32 49.6605 17.06 50.4305 17.06 52.0205ZM18.1 44.6227C18.1 42.6127 17.04 41.4727 15.22 41.4727L11.3 41.4727L11.3 42.5527L15.15 42.5527C16.5 42.5527 17.06 43.1527 17.06 44.6227C17.06 46.0927 16.5 46.6927 15.15 46.6927L11.3 46.6927L11.3 47.7627L15.22 47.7627C17.04 47.7627 18.1 46.6227 18.1 44.6227ZM18 37.1856L12.27 37.1856L12.27 34.5556L11.3 34.5556L11.3 40.8956L12.27 40.8956L12.27 38.2556L18 38.2556L18 37.1856ZM18.1 29.1148C18.1 27.1048 17.04 25.9648 15.22 25.9648L11.3 25.9648L11.3 27.0448L15.15 27.0448C16.5 27.0448 17.06 27.6448 17.06 29.1148C17.06 30.5848 16.5 31.1848 15.15 31.1848L11.3 31.1848L11.3 32.2548L15.22 32.2548C17.04 32.2548 18.1 31.1148 18.1 29.1148ZM18.1 22.1978C18.1 20.2178 17.16 19.3878 16.14 19.3878C15.16 19.3878 14.55 20.0478 14.31 21.3878L14.03 23.0178C13.86 23.8078 13.67 24.1478 13.09 24.1478C12.49 24.1478 12.19 23.6678 12.19 22.4478C12.19 21.0578 12.6 20.5678 13.42 20.5678L13.55 20.5678L13.55 19.4978L13.49 19.4978C12.18 19.4978 11.2 20.3878 11.2 22.3478C11.2 24.4278 12.18 25.2278 13.15 25.2278C14.25 25.2278 14.77 24.4278 14.97 23.2978L15.24 21.6578C15.4 20.8078 15.62 20.4678 16.2 20.4678C16.83 20.4678 17.11 20.9178 17.11 22.1978C17.11 23.6678 16.71 24.1378 15.91 24.1378L15.75 24.1378L15.75 25.2178L15.81 25.2178C17.22 25.2178 18.1 24.1978 18.1 22.1978Z" fill="#8B8B8B"/>
</svg>
