<svg width="430" height="87" viewBox="0 0 430 87" fill="none" xmlns="http://www.w3.org/2000/svg">
<rect x="-226" width="1080" height="87" fill="#242627"/>
<path d="M407.694 58C414.144 58 417.154 54.904 417.154 50.002C417.154 46.132 414.574 43.466 409.242 43.079V42.692C414.058 42.348 415.95 39.768 415.95 36.199C415.95 31.684 412.768 29.19 406.877 29.19L389.591 29.19L389.591 58L407.694 58ZM396.041 34.995L406.06 34.995C408.468 34.995 409.5 35.855 409.5 37.833C409.5 39.811 408.511 40.628 406.146 40.628L396.041 40.628L396.041 34.995ZM396.041 45.96L406.92 45.96C409.543 45.96 410.618 46.777 410.618 49.056C410.618 51.378 409.543 52.195 406.92 52.195L396.041 52.195V45.96ZM427.489 58V47.551H431.746C435.1 47.551 436.175 48.282 437.336 50.518L441.292 58L448.774 58L444.603 50.26C443.528 48.239 442.539 46.863 439.959 46.175V45.831C445.377 45.315 448.086 42.52 448.086 37.833C448.086 32.329 444.044 29.19 436.949 29.19L421.039 29.19L421.039 58L427.489 58ZM427.489 34.995L436.906 34.995C439.959 34.995 441.335 35.984 441.335 38.822C441.335 41.832 439.959 42.692 436.906 42.692L427.489 42.692L427.489 34.995ZM457.606 58L460.358 51.636L474.763 51.636L477.472 58L484.868 58L472.183 29.19L462.981 29.19L450.382 58L457.606 58ZM465.561 39.553L467.324 35.081L467.797 35.081L469.56 39.553L472.269 45.831L462.852 45.831L465.561 39.553ZM494.328 58V44.111L494.07 38.822H494.5L498.155 44.24L508.776 58L515.656 58L515.656 29.19L509.206 29.19L509.206 43.079L509.507 48.884L509.034 48.884L505.078 42.821L494.758 29.19L487.878 29.19L487.878 58L494.328 58ZM534.816 58C544.061 58 549.909 52.625 549.909 43.595C549.909 34.565 544.061 29.19 534.816 29.19L520.927 29.19V58L534.816 58ZM534.816 34.995C540.664 34.995 543.029 36.672 543.029 43.595C543.029 50.518 540.664 52.195 534.816 52.195L527.377 52.195V34.995L534.816 34.995ZM567.284 58.43C576.443 58.43 580.098 54.216 580.098 49.529C580.098 45.573 577.776 42.434 571.326 41.402L563.242 40.112C560.834 39.682 559.888 39.08 559.888 37.403C559.888 35.554 561.307 34.651 565.951 34.651C571.67 34.651 573.089 35.812 573.089 38.564V39.166L579.582 39.166V38.908C579.582 32.845 575.454 28.76 566.596 28.76C556.921 28.76 553.395 33.318 553.395 37.661C553.395 42.348 556.448 44.928 561.608 45.745L569.692 46.906C572.659 47.422 573.648 48.067 573.648 49.83C573.648 51.765 572.444 52.539 567.284 52.539C561.436 52.539 560.103 51.464 560.103 48.798V48.024L553.653 48.024V48.282C553.653 54.99 558.555 58.43 567.284 58.43Z" fill="url(#paint0_linear_0_1)"/>
<path d="M40.749 58.43C49.134 58.43 54.122 55.506 54.122 49.916C54.122 45.702 51.37 43.552 47.156 42.95V42.477C50.897 42.004 52.875 39.768 52.875 36.457C52.875 31.383 48.618 28.76 40.921 28.76C31.547 28.76 27.075 32.888 27.075 38.951V39.166L33.912 39.166V38.951C33.912 36.027 35.202 34.952 40.362 34.952C45.264 34.952 46.468 35.812 46.468 37.833C46.468 39.639 45.35 40.542 42.856 40.542L35.159 40.542L35.159 45.831L43.458 45.831C46.167 45.831 47.543 46.734 47.543 48.884C47.543 51.378 45.866 52.238 40.448 52.238C34.729 52.238 33.912 51.163 33.912 48.239V47.551L27.075 47.551L27.075 48.239C27.075 54.603 31.332 58.43 40.749 58.43ZM72.3066 58C81.5516 58 87.3996 52.625 87.3996 43.595C87.3996 34.565 81.5516 29.19 72.3066 29.19L58.4176 29.19L58.4176 58L72.3066 58ZM72.3066 34.995C78.1546 34.995 80.5196 36.672 80.5196 43.595C80.5196 50.518 78.1546 52.195 72.3066 52.195L64.8676 52.195L64.8676 34.995L72.3066 34.995ZM118.934 58L130.888 29.19L123.148 29.19L114.634 51.464H114.204L105.561 29.19L97.7784 29.19L109.732 58L118.934 58ZM140.215 58L140.215 29.19L133.765 29.19L133.765 58L140.215 58ZM159.33 58C168.575 58 174.423 52.625 174.423 43.595C174.423 34.565 168.575 29.19 159.33 29.19L145.441 29.19L145.441 58L159.33 58ZM159.33 34.995C165.178 34.995 167.543 36.672 167.543 43.595C167.543 50.518 165.178 52.195 159.33 52.195L151.891 52.195L151.891 34.995L159.33 34.995ZM203.107 58V52.195L185.176 52.195V46.39L202.462 46.39L202.462 40.628L185.176 40.628V34.995L203.107 34.995V29.19L178.726 29.19L178.726 58L203.107 58ZM222.361 58.43C232.122 58.43 238.013 52.582 238.013 43.595C238.013 34.608 232.122 28.76 222.361 28.76C212.815 28.76 206.881 34.608 206.881 43.595C206.881 52.582 212.815 58.43 222.361 58.43ZM222.361 52.238C216.04 52.238 213.718 50.002 213.718 43.595C213.718 37.188 216.04 34.952 222.361 34.952C228.682 34.952 231.133 37.188 231.133 43.595C231.133 50.002 228.682 52.238 222.361 52.238Z" fill="url(#paint1_linear_0_1)"/>
<defs>
<linearGradient id="paint0_linear_0_1" x1="388" y1="44.5" x2="582" y2="44.5" gradientUnits="userSpaceOnUse">
<stop stop-color="#888888"/>
<stop offset="1" stop-color="#414345"/>
</linearGradient>
<linearGradient id="paint1_linear_0_1" x1="26" y1="44.5" x2="240" y2="44.5" gradientUnits="userSpaceOnUse">
<stop stop-color="#888888"/>
<stop offset="1" stop-color="#414345"/>
</linearGradient>
</defs>
</svg>
