<svg width="24" height="16" viewBox="0 0 24 16" fill="none" xmlns="http://www.w3.org/2000/svg">
<path d="M9.8738 6.97372C10.3718 6.71606 10.7484 6.42909 11.0064 6.11897C11.4654 5.56046 11.6919 4.81989 11.6919 3.90189C11.6919 3.00857 11.4654 2.24486 11.0124 1.60457C10.2563 0.561601 8.97673 0.0277714 7.16758 0H0V15.0475H6.68304C7.4361 15.0475 8.13366 14.9811 8.77871 14.8454C9.42377 14.7081 9.98181 14.4566 10.4543 14.0894C10.8744 13.77 11.2254 13.3735 11.5044 12.906C11.9455 12.1994 12.166 11.3986 12.166 10.5069C12.166 9.64286 11.9725 8.90692 11.5884 8.30212C11.1999 7.69732 10.6299 7.25452 9.8738 6.97372ZM2.95674 2.6136H6.185C6.89456 2.6136 7.47961 2.69229 7.93864 2.84812C8.46969 3.07492 8.73521 3.53623 8.73521 4.23977C8.73521 4.8708 8.53269 5.31206 8.13216 5.56046C7.72863 5.80886 7.20509 5.93383 6.56303 5.93383H2.95674V2.6136ZM8.06165 12.1716C7.70463 12.349 7.20209 12.437 6.55853 12.437H2.95674V8.424H6.60804C7.24409 8.42863 7.73913 8.51503 8.09316 8.67703C8.72321 8.97018 9.03673 9.50709 9.03673 10.2924C9.03673 11.2181 8.71271 11.8414 8.06165 12.1716Z" fill="white"/>
<path d="M21.6932 0.702148H15.3372V2.57518H21.6932V0.702148Z" fill="white"/>
<path d="M23.9015 8.09386C23.7695 7.22215 23.4785 6.45534 23.0254 5.79346C22.5289 5.04363 21.8988 4.49437 21.1323 4.14723C20.3687 3.79854 19.5091 3.6242 18.5521 3.62574C16.9454 3.62574 15.6403 4.1426 14.6307 5.1686C13.6242 6.19769 13.1201 7.67729 13.1201 9.60586C13.1201 11.6625 13.6767 13.1483 14.7958 14.0601C15.9103 14.9735 17.1974 15.4286 18.6586 15.4286C20.4272 15.4286 21.8028 14.8871 22.7854 13.8071C23.414 13.1251 23.7695 12.454 23.8475 11.7952H20.9193C20.7497 12.1207 20.5532 12.3753 20.3282 12.5604C19.9202 12.8999 19.3891 13.0696 18.7381 13.0696C18.1185 13.0696 17.5935 12.9292 17.1554 12.6499C16.4324 12.2025 16.0544 11.4187 16.0064 10.3032H23.9975C24.0095 9.34203 23.9795 8.603 23.9015 8.09386ZM16.0784 8.38237C16.1834 7.65877 16.4384 7.08483 16.8434 6.66054C17.2485 6.2378 17.8215 6.02489 18.5551 6.02334C19.2316 6.02334 19.7972 6.22237 20.2577 6.62197C20.7122 7.02466 20.9688 7.6094 21.0213 8.38237H16.0784Z" fill="white"/>
</svg>
