<svg width="108" height="36" viewBox="0 0 108 36" fill="none" xmlns="http://www.w3.org/2000/svg">
<path d="M107 11V1H97" stroke="#fff"/>
<path d="M107 25V35H97" stroke="#fff"/>
<path d="M1 11V1H11" stroke="#fff"/>
<path d="M1 25V35H11" stroke="#fff"/>
<path d="M26.79 21.0246C28.91 21.0246 30.29 19.6646 30.29 17.5746C30.29 15.4846 28.91 14.1246 26.79 14.1246C24.69 14.1246 23.3 15.4846 23.3 17.5746C23.3 19.6646 24.69 21.0246 26.79 21.0246ZM26.79 19.9846C25.2 19.9846 24.44 19.2446 24.44 17.5746C24.44 15.9046 25.2 15.1546 26.79 15.1546C28.38 15.1546 29.15 15.9046 29.15 17.5746C29.15 19.2446 28.38 19.9846 26.79 19.9846ZM32.1679 20.9246V18.3246H33.3979C34.2379 18.3246 34.5479 18.5446 34.8479 19.0746L35.9179 20.9246H37.1579L36.0379 18.9846C35.7979 18.5646 35.5579 18.2646 35.0379 18.1246V18.0546C36.2979 17.9846 37.0279 17.3046 37.0279 16.1946C37.0279 14.9446 36.0879 14.2246 34.5679 14.2246H31.0879V20.9246H32.1679ZM32.1679 15.1946H34.5579C35.4579 15.1946 35.9079 15.5246 35.9079 16.3446C35.9079 17.1846 35.4579 17.4946 34.5579 17.4946H32.1679V15.1946ZM40.9166 20.9246C42.9966 20.9246 44.3066 19.6446 44.3066 17.5746C44.3066 15.5046 42.9966 14.2246 40.9166 14.2246H37.8666V20.9246H40.9166ZM40.9166 15.1946C42.4666 15.1946 43.1666 15.8546 43.1666 17.5746C43.1666 19.2946 42.4666 19.9546 40.9166 19.9546H38.9366V15.1946H40.9166ZM50.4713 20.9246V19.9546H46.1913V18.0346H50.3213V17.0746H46.1913V15.1946H50.4713V14.2246H45.1113V20.9246H50.4713ZM52.3925 20.9246V18.3246H53.6225C54.4625 18.3246 54.7725 18.5446 55.0725 19.0746L56.1425 20.9246H57.3825L56.2625 18.9846C56.0225 18.5646 55.7825 18.2646 55.2625 18.1246V18.0546C56.5225 17.9846 57.2525 17.3046 57.2525 16.1946C57.2525 14.9446 56.3125 14.2246 54.7925 14.2246H51.3125V20.9246H52.3925ZM52.3925 15.1946H54.7825C55.6825 15.1946 56.1325 15.5246 56.1325 16.3446C56.1325 17.1846 55.6825 17.4946 54.7825 17.4946H52.3925V15.1946ZM60.8202 20.9246V16.9946L60.7802 15.8346H60.8602L61.7002 17.0146L64.7202 20.9246H65.8802V14.2246H64.8002V18.1846L64.8502 19.3946H64.7702L63.9002 18.1446L60.9002 14.2246H59.7402V20.9246H60.8202ZM70.1689 21.0246C72.2889 21.0246 73.6689 19.6646 73.6689 17.5746C73.6689 15.4846 72.2889 14.1246 70.1689 14.1246C68.0689 14.1246 66.6789 15.4846 66.6789 17.5746C66.6789 19.6646 68.0689 21.0246 70.1689 21.0246ZM70.1689 19.9846C68.5789 19.9846 67.8189 19.2446 67.8189 17.5746C67.8189 15.9046 68.5789 15.1546 70.1689 15.1546C71.7589 15.1546 72.5289 15.9046 72.5289 17.5746C72.5289 19.2446 71.7589 19.9846 70.1689 19.9846ZM77.4668 20.9246L78.7368 17.0246L79.2168 15.3046H79.3068L79.7968 17.0246L81.1468 20.9246H82.7368L84.4168 14.2246H83.2368L82.2368 18.4646L81.9568 19.8846H81.8768L81.4968 18.4646L80.0568 14.2246H78.4868L77.1368 18.4646L76.7768 19.8846H76.6968L76.3968 18.4646L75.3068 14.2246H74.1068L75.8768 20.9246H77.4668Z" fill="#fff"/>
</svg>
